<?xml version="1.0" encoding="utf-8" ?>
<svg xmlns="http://www.w3.org/2000/svg" xmlns:xlink="http://www.w3.org/1999/xlink" width="811" height="811">
	<path fill="#FEFEFE" transform="scale(0.791992 0.791992)" d="M0 0L1024 0L1024 1024L0 1024L0 0Z"/>
	<path fill="#29233B" transform="scale(0.791992 0.791992)" d="M689.713 35.6118C691.492 35.7097 693.805 35.8159 695.277 36.948C697.27 38.4812 697.689 40.7896 697.916 43.1789C699.262 57.3883 693.577 90.6077 687.885 103.265C685.099 109.458 681 114.794 676.7 119.996L678.536 119.162C681.93 117.641 686.037 115.446 689.782 117.053C691.61 117.838 692.698 119.471 693.359 121.287C696.957 131.174 687.546 170.229 683.78 181.858C681.584 188.638 678.714 195.043 675.734 201.5C678.297 201.875 680.972 202.296 683.207 203.696C685.353 205.04 686.53 207.049 687.02 209.504C688.133 215.075 686.238 221.769 685.162 227.248C681.098 247.947 675.354 269.507 663.365 287.145C665.499 289.026 667.943 291.257 668.886 294.018C671.76 302.437 659.242 332.104 655.159 340.43C651.788 347.304 647.592 353.755 644.043 360.542C645.78 362.636 647.524 364.925 647.632 367.748C647.943 375.923 635.716 395.115 630.833 402.039C626.521 408.153 621.604 413.972 616.724 419.64C616.533 421.519 616.366 423.453 615.885 425.284C611.999 440.055 585 458.875 571.878 466.973C574.999 469.86 577.726 472.893 580.126 476.413C590.335 491.384 595.511 513.38 592.219 531.23C593.867 533.623 595.132 535.834 596.238 538.528C603.433 533.78 610.241 528.705 616.445 522.696C629.1 510.437 643.929 489.504 646.399 471.63C648.805 454.217 648.497 439.839 655.932 423.107C666.51 399.3 684.933 383.45 703.563 366.266L739.275 333.31Q765.114 309.303 789.752 284.064C825.04 248.351 859.807 211.051 890.521 171.318Q912.201 142.933 931.487 112.869Q936.559 104.849 941.375 96.6727C943.603 92.8027 945.631 88.6185 948.195 84.9687C949.642 82.9099 951.131 81.201 953.569 80.3699C955.141 79.834 956.632 79.8714 958.118 80.6256C960.582 81.8761 962.039 84.7668 962.847 87.2814C964.639 92.8537 965.291 99.1484 966.214 104.923C970.767 133.416 967.076 152.728 954.168 178.246C956.84 176.392 959.576 174.25 962.707 173.249C964.993 172.518 967.192 172.525 969.327 173.708C971.551 174.942 972.616 177.123 973.264 179.492C977.226 193.964 972.72 230.757 967.379 244.343C963.767 253.529 958.235 261.062 953.411 269.539C956.879 267.281 961.621 261.991 965.955 262.366C968.872 262.618 970.276 264.314 971.992 266.504C972.689 269.708 972.917 272.827 972.931 276.097C972.974 286.067 971.774 295.549 968.985 305.123C963.265 324.762 953.567 336.096 939.576 350.306C944.354 348.559 949.436 344.823 954.739 345.613C956.395 345.859 957.8 346.418 958.731 347.883C961.193 351.754 958.256 362.476 957.179 366.647C952.073 386.437 941.135 402.021 923.386 412.534C926.576 411.957 931.746 410.423 934.789 411.544C936.464 412.161 937.66 413.201 938.215 414.934C939.827 419.964 934.644 428.824 932.176 433.077C922.38 449.953 909.382 461.612 890.35 466.578Q891.219 466.758 892.086 466.948C895.813 467.768 900.442 468.696 902.36 472.447C903.126 473.944 902.888 475.559 902.308 477.062C898.83 486.072 883.897 496.963 875.681 501.22C870.794 503.752 865.417 505.554 860.347 507.72C860.818 509.398 861.317 511.172 861.117 512.933C860.819 515.572 858.105 518.079 856.211 519.678C838.841 534.336 821.55 531.947 800.673 530.196C806.332 533.562 815.314 534.742 819.388 540.093C819.611 541.139 819.895 541.72 819.228 542.684C816.974 545.935 809.91 547.863 806.198 548.663C811.412 549.946 816.989 550.459 822.303 551.291Q833.525 553.053 844.627 555.455C878.631 562.568 911.346 571.93 943.824 584.314C949.995 583.707 956.151 581.09 962.128 579.453C965.124 578.632 968.263 578.346 970.995 580.116C972.39 581.019 973.279 582.448 973.562 584.078C974.893 591.763 966.847 604.147 962.48 610.047C944.567 634.248 919.973 634.142 892.748 638.175C891.074 642.39 889.061 646.445 887.085 650.524C890.001 651.584 893.108 652.654 895.611 654.526C898.125 656.405 899.89 658.897 900.278 662.059C901.35 670.784 891.868 680.926 887.038 687.389C898.976 697.795 905.153 713.198 907.452 728.481C916.218 733.484 924.104 739.821 929.169 748.702C942.352 771.818 942.257 805.978 935.527 831.092C938.081 833.797 939.171 835.837 939.383 839.595C940.184 853.768 927.573 890.73 917.741 901.161C914.65 904.439 911 906.791 906.711 908.195C898.159 910.994 888.049 911.231 879.096 912.004Q856.139 914.057 833.109 915.006C822.614 923.854 811.783 930.853 798.343 934.226C782.057 938.313 752.567 941.695 736.582 937.828C731.219 936.531 726.795 934.111 722.092 931.295C717.844 928.504 714.647 925.495 711.477 921.537C695.864 921.597 680.213 921.996 664.613 921.32C646.723 920.544 628.901 918.666 611.014 917.758L517.885 913.437L511.069 922.872C524.347 923.911 537.663 926.044 550.91 927.549Q596.383 932.343 641.752 938.033Q738.872 949 835.771 961.779C849.262 963.546 907.863 970.581 915.459 974.616L915.346 975.154C904.723 979.664 821.454 977.408 803.751 976.695Q686.176 972.46 568.963 962.305C539.947 959.88 510.663 958.421 481.778 954.768C470.19 953.303 458.642 950.973 447.1 949.141C428.107 946.127 409.025 943.367 390.094 939.987C375.02 937.296 360.028 934.046 344.984 931.181L216.829 907.117Q170.627 898.282 124.527 888.927C100.932 884.323 76.2504 880.61 53.4213 872.964C64.047 870.939 75.3708 870.304 86.1563 869.352C84.725 866.648 83.5484 863.798 82.3032 861.004C74.0581 860.948 65.5413 860.604 57.3476 859.729C55.5042 857.733 53.8814 855.794 53.3963 853.038C52.2614 846.589 59.9109 841.185 63.2528 836.449L63.6883 835.826C63.7463 827.306 63.4014 818.764 63.7052 810.251C64.728 781.586 71.0359 752.46 88.932 729.363C109.27 703.115 141.164 696.935 172.243 693.028C171.643 690.045 171.621 687.746 172.604 684.832C175.8 675.36 185.958 664.851 194.872 660.495C201.497 657.257 208.118 656.843 215.078 659.205C222.699 651.085 230.212 642.702 238.315 635.065C251.543 622.599 272.814 603.608 287.988 594.634C294.386 590.85 301.221 588.079 308.092 585.295C318.034 581.267 328.046 577.69 338.487 575.179C375.343 566.316 422.984 566.447 461.151 567.526Q461.101 562.059 460.094 556.686C458.974 551.017 456.904 545.782 453.538 541.065C444.15 527.907 423.307 515.946 408.872 509.518C397.094 504.274 384.015 500.093 373.337 492.824C364.955 487.118 358.928 479.885 357.03 469.711C355.952 463.93 356.491 458.027 357.216 452.235C360.65 424.834 374.242 400.392 389.61 377.957C418.951 335.124 458.768 299.885 493.918 261.981Q575.917 174.205 650.947 80.402Q660.432 68.7116 669.406 56.6242C673.611 51.003 678.881 42.306 684.074 37.8336C685.774 36.369 687.555 36.0131 689.713 35.6118Z"/>
	<path fill="#FEFEFE" transform="scale(0.791992 0.791992)" d="M673.601 501.662C675.014 502.536 676.206 503.372 677.407 504.523L676.729 505.289C675.397 505.566 674.122 505.976 672.774 505.605C672.427 504.153 673.118 503.048 673.601 501.662Z"/>
	<path fill="#FEFEFE" transform="scale(0.791992 0.791992)" d="M693.324 504.488C694.975 505.27 697.23 506.198 697.924 507.988C697.377 509.254 697.009 509.222 695.76 509.859C694.106 508.731 692.039 508.072 690.684 506.593C691.131 505.263 692.126 505.122 693.324 504.488Z"/>
	<path fill="#FEFEFE" transform="scale(0.791992 0.791992)" d="M663.734 518.686C665.913 518.866 668.006 519.111 669.642 520.666C670.154 522.07 670.047 522.377 669.759 523.865C667.681 523.426 665.525 523.192 663.777 521.918C662.977 520.449 663.301 520.243 663.734 518.686Z"/>
	<path fill="#43404E" transform="scale(0.791992 0.791992)" d="M667.564 513.387C669.274 514.068 671.285 514.632 672.621 515.933L672.775 516.61C673.718 517.396 674.705 518.056 675.189 519.223C673.818 519.012 672.451 518.785 671.098 518.474C668.863 517.961 667.006 517.73 665.762 515.699C666.118 514.174 666.244 514.277 667.564 513.387Z"/>
	<path fill="#FEFEFE" transform="scale(0.791992 0.791992)" d="M67.8994 841.019C69.2024 841.162 70.35 841.24 71.5387 841.849C72.4044 842.925 73.1318 843.648 73.1789 845.103C72.174 846.175 72.0235 845.86 70.6251 845.913C68.7655 845.918 66.6789 846.229 65.0581 845.283C65.2343 843.716 66.8887 842.209 67.8994 841.019Z"/>
	<path fill="#291334" transform="scale(0.791992 0.791992)" d="M160.432 777.694C160.594 776.048 160.842 774.354 160.67 772.702C160.64 772.419 160.602 772.138 160.568 771.856L161.74 771.992L160.874 771.656C160.978 782.59 161.903 793.642 163.004 804.521C164.305 804.619 163.72 804.394 164.756 805.202L164.481 805.527C164.919 803.699 163.796 802.23 163.816 800.392C163.893 793.272 162.638 785.995 162.306 778.849C162.151 775.52 161.14 763.809 163.106 761.643C162.968 776.63 163.649 791.277 165.594 806.151L166.144 810.651L163.69 811.621L162.754 806.347C161.28 797.011 160.233 787.149 160.432 777.694Z"/>
	<path fill="#FEFEFE" transform="scale(0.791992 0.791992)" d="M686.321 468.417C687.45 468.665 689.137 469.219 690.001 470.046C690.908 470.913 691.321 471.777 691.102 473.049C690.557 476.2 685.788 479.297 683.457 481.161C682.594 481.781 681.707 482.27 680.782 482.786C680.02 480.202 682.459 473.33 683.096 470.329C683.889 469.136 685.04 468.88 686.321 468.417Z"/>
	<path fill="#FEFEFE" transform="scale(0.791992 0.791992)" d="M445.527 635.341C446.26 635.743 446.109 635.519 446.473 636.237C446.986 637.248 447.053 637.957 446.565 639.008C443.665 645.263 433.8 649.891 427.749 652.299C427.308 652.303 427.627 652.331 426.891 651.868C429.066 647.16 440.725 637.958 445.527 635.341Z"/>
	<path fill="#FEFEFE" transform="scale(0.791992 0.791992)" d="M860.272 855.132L861.569 855.808C861.345 861.562 843.853 891.587 839.642 899.395L838.299 898.715C838.467 895.159 857.028 861.243 860.272 855.132Z"/>
	<path fill="#FEFEFE" transform="scale(0.791992 0.791992)" d="M897.363 854.662C898.405 855.101 898 854.746 898.572 855.736C896.418 862.679 882.256 890.358 877.527 895.673C877.042 895.391 876.595 895.017 876.144 894.682C877.085 889.907 893.625 860.726 897.363 854.662Z"/>
	<path fill="#FEFEFE" transform="scale(0.791992 0.791992)" d="M811.624 857.184C812.583 857.794 812.685 857.648 813.102 858.78C810.407 867.442 797.943 892.828 793.014 900.521L791.917 899.869C791.026 897.082 809.007 862.462 811.624 857.184Z"/>
	<path fill="#FEFEFE" transform="scale(0.791992 0.791992)" d="M678.343 490.907C682.212 492.893 690.388 494.73 692.34 498.688C692.183 499.633 692.294 499.82 691.598 500.553C689.133 503.146 685.438 503.336 682.097 503.396C679.296 502.779 677.068 501.222 674.751 499.631C675.282 498.292 675.699 496.645 676.794 495.665C677.793 496.45 678.531 497.46 679.324 498.443C680.401 498.853 680.272 499.055 681.404 498.575C681.389 497.75 681.362 497.096 681.118 496.297C680.823 495.327 679.481 494.958 678.602 494.492C677.884 493.041 678.139 492.482 678.343 490.907Z"/>
	<path fill="#FEFEFE" transform="scale(0.791992 0.791992)" d="M667.564 513.387C669.871 511.763 672.481 512.306 674.763 510.727C673.49 510.691 672.239 510.618 670.971 510.511L670.447 509.717C670.966 508.252 671.447 507.278 672.953 506.636C675.253 505.654 678.987 505.741 681.234 506.871C682.698 507.608 683.835 508.832 684.329 510.407C684.71 511.621 684.675 512.874 683.96 513.97C682.907 515.585 681.021 516.264 679.182 516.405C676.938 516.577 674.807 516.507 672.621 515.933C671.285 514.632 669.274 514.068 667.564 513.387Z"/>
	<path fill="#FEFEFE" transform="scale(0.791992 0.791992)" d="M872.649 689.229C876.557 690.754 879.453 692.281 882.479 695.239C884.255 696.674 885.776 699.216 885.991 701.523C886.087 702.546 885.918 701.845 885.854 702.712C885.83 703.039 885.856 703.367 885.856 703.695C886.75 705.784 885.836 709.165 887.114 710.751C887.906 710.3 887.953 710.167 888.91 710.169C889.883 711.612 890.155 713.144 890.138 714.864C890.127 715.957 890.323 716.792 889.534 717.577C886.747 715.342 875.039 693.653 872.649 689.229Z"/>
	<path fill="#252133" transform="scale(0.791992 0.791992)" d="M885.856 703.695C884.568 703.93 884.543 703.968 883.395 703.357C881.777 700.747 879.802 698.051 879.768 694.868L880.34 694.39L882.479 695.239C884.255 696.674 885.776 699.216 885.991 701.523C886.087 702.546 885.918 701.845 885.854 702.712C885.83 703.039 885.856 703.367 885.856 703.695Z"/>
	<path fill="#FEFEFE" transform="scale(0.791992 0.791992)" d="M430.912 468.051C431.38 468.009 432.311 467.851 432.804 467.963C433.6 468.144 434.075 468.419 434.526 469.09C435.972 471.246 435.871 474.304 435.345 476.743C434.95 478.577 434.424 480.322 432.769 481.366C430.269 481.169 427.935 479.91 425.65 478.93C422.834 477.698 420.28 476.316 417.67 474.695C421.837 471.986 426.309 469.898 430.912 468.051Z"/>
	<path fill="#FEFEFE" transform="scale(0.791992 0.791992)" d="M205.419 667.092C209.361 666.875 212.686 667.849 216.173 669.587C214.739 671.916 208.105 670.491 205.343 670.888C203.516 671.15 201.793 671.862 200.101 672.567L199.432 672.851C196.636 676.244 194.568 680.092 192.689 684.045C192.007 686.25 191.725 688.377 191.443 690.656C189.768 688.141 188.304 685.734 187.057 682.977C187.725 681.122 188.44 679.388 189.536 677.738Q189.875 677.227 190.24 676.733Q190.604 676.24 190.992 675.765Q191.38 675.29 191.791 674.834Q192.202 674.379 192.634 673.944Q193.067 673.51 193.521 673.097Q193.975 672.684 194.448 672.294Q194.922 671.904 195.414 671.538Q195.906 671.172 196.415 670.83Q196.925 670.489 197.451 670.173Q197.976 669.857 198.517 669.567Q199.058 669.277 199.612 669.014Q200.166 668.752 200.733 668.516Q201.299 668.281 201.876 668.074Q202.454 667.867 203.041 667.689Q203.628 667.51 204.222 667.361Q204.817 667.212 205.419 667.092Z"/>
	<path fill="#FEFEFE" transform="scale(0.791992 0.791992)" d="M507.517 571.105C512.287 572.431 517.164 574.71 521.835 576.407Q520.448 581.106 519.154 585.831C518.909 586.26 519.116 585.954 518.253 586.497C514.222 585.653 510.256 584.143 506.539 582.383L507.517 571.105Z"/>
	<path fill="#FEFEFE" transform="scale(0.791992 0.791992)" d="M186.153 680.573C185.424 683.665 184.436 686.543 186.177 689.496C188.496 693.43 193.328 694.881 197.534 695.803C202.142 696.813 206.881 697.07 211.582 697.283C211.384 700.132 211.543 703.089 209.45 705.289C207.711 706.131 206.566 706.091 204.7 705.672L202.756 705.4Q202.551 703.03 202.387 700.657L205.915 699.392C205.776 699.303 205.648 699.196 205.5 699.123C203.827 698.3 200.912 698.593 199.026 698.351C194.577 697.78 183.347 695.186 181.308 690.774C180.569 689.174 180.994 687.202 181.748 685.684C182.707 683.75 184.612 682.077 186.153 680.573Z"/>
	<path fill="#43404E" transform="scale(0.791992 0.791992)" d="M202.387 700.657L205.915 699.392L204.7 705.672L202.756 705.4Q202.551 703.03 202.387 700.657Z"/>
	<path fill="#FEFEFE" transform="scale(0.791992 0.791992)" d="M690.527 447.158C694.783 446.899 699.06 447.721 703.359 447.547C699.004 454.477 694.006 459.837 687.313 464.538C686.081 464.733 685.616 465.047 684.483 464.407C684.532 461.591 686.943 459.558 688.727 457.616C687.678 457.525 686.808 457.585 685.761 457.658L685.493 457.011C686.503 455.588 686.913 455.575 688.435 454.91C689.585 454.407 689.895 454.535 690.349 453.358L689.85 452.453C688.577 451.764 688.15 452.122 686.776 452.446L686.57 451.723C686.82 450.57 687.056 449.525 687.663 448.498C688.329 447.371 689.308 447.466 690.527 447.158Z"/>
	<path fill="#FEFEFE" transform="scale(0.791992 0.791992)" d="M704.733 576.704C713.624 577.507 722.579 577.843 731.494 578.334L720.131 582.492Q711.083 585.965 701.891 589.038C702.765 584.916 703.552 580.751 704.733 576.704Z"/>
	<path fill="#FEFEFE" transform="scale(0.791992 0.791992)" d="M697.845 427.683C701.187 427.306 703.859 428.072 707.045 428.962Q706.218 431.035 705.224 433.033C702.718 438.078 698.569 441.105 693.309 442.88C691.586 443.343 689.731 443.483 687.961 443.714C688.3 441.677 688.786 439.689 689.278 437.686C690.887 436.907 692.36 435.829 693.845 434.835L693.381 434.962L693.228 434.73C692.169 434.896 691.257 434.862 690.19 434.777C690.024 432.89 691.29 430.498 691.952 428.727C693.867 428.172 695.875 427.966 697.845 427.683Z"/>
	<path fill="#FEFEFE" transform="scale(0.791992 0.791992)" d="M711.3 403.489C712.414 403.389 712.338 403.437 713.269 403.841C713.433 404.314 713.577 404.626 713.565 405.164C713.503 408.05 711.179 411.699 709.456 413.919C705.828 418.594 700.236 422.573 694.259 423.398L693.481 422.781C694.373 420.489 696.167 414.152 697.912 412.724L699.056 413.739L699.76 413.635C700.237 412.763 700.435 412.765 700.26 411.739L698.132 411.922C698.105 410.282 699.42 408.348 700.151 406.899C703.976 405.989 707.603 404.823 711.3 403.489Z"/>
	<path fill="#FEFEFE" transform="scale(0.791992 0.791992)" d="M691.197 481.146C695.456 481.421 701.585 482.403 704.496 485.846C705.439 486.961 705.599 487.896 705.511 489.333C704.895 490.728 704.267 491.498 702.929 492.212C697.734 494.985 688.915 493.157 683.592 491.361C682.351 490.428 681.489 489.636 680.593 488.363L680.783 487.887C684.267 487.574 688.319 490.204 691.983 490.394L692.076 489.465C689.465 486.395 684.323 486.649 680.641 486.326C684.138 484.452 687.167 481.718 691.197 481.146Z"/>
	<path fill="#FEFEFE" transform="scale(0.791992 0.791992)" d="M533.903 707.817C539.417 708.339 546.688 715.332 552.55 717.364C556.847 718.854 561.414 719.654 565.931 720.069C579.498 721.314 594.495 720.761 608.251 720.932C612.206 720.981 618.798 721.792 622.491 721.064C622.755 721.012 622.997 720.882 623.25 720.791L623.485 721.684L624.44 721.572L624.526 721.165L624.838 721.277L624.994 721.779L623.856 721.809C613.186 722.065 556.875 724.374 550.044 721.618C544.1 719.219 538.5 712.206 533.903 707.817Z"/>
	<path fill="#FEFEFE" transform="scale(0.791992 0.791992)" d="M702.472 622.611C706.083 622.438 714.194 629.861 717.226 632.17C711.432 632.522 705.806 633.486 700.11 634.535C695.867 635.429 691.572 636.107 687.301 636.851C689.271 632.919 691.24 629.031 693.487 625.246C696.448 624.102 699.384 623.331 702.472 622.611Z"/>
	<path fill="#FEFEFE" transform="scale(0.791992 0.791992)" d="M900.481 586.195C901.761 586.683 902.994 586.821 903.734 588.007C895.17 607.462 888.093 627.534 878.978 646.771C878.55 647.115 878.144 647.153 877.619 647.283L876.882 646.808C876.86 642.805 897.086 593.947 900.481 586.195Z"/>
	<path fill="#FEFEFE" transform="scale(0.791992 0.791992)" d="M661.703 577.224L663.04 577.2L663.649 577.819C663.491 582.637 660.241 588.779 658.45 593.325C653.539 591.17 648.898 588.465 644.219 585.855Q638.692 582.973 633.065 580.291C642.595 579.169 652.124 577.84 661.703 577.224Z"/>
	<path fill="#FEFEFE" transform="scale(0.791992 0.791992)" d="M773.617 919.292C776.626 919.013 779.696 918.995 782.717 918.888C767.538 925.745 750.906 928.978 734.63 924.637C731.179 923.535 727.94 922.211 724.643 920.711C740.934 919.884 757.29 920.213 773.617 919.292Z"/>
	<path fill="#FEFEFE" transform="scale(0.791992 0.791992)" d="M677.4 521.364C679.936 523.47 685.437 532.561 688.626 536.042Q676.743 535.958 664.875 536.555L655.054 537.047L655.451 536.185C656.916 532.943 658.733 530.079 660.669 527.098C662.848 527.361 665.18 527.766 667.372 527.678C671.949 527.495 674.494 524.453 677.4 521.364Z"/>
	<path fill="#FEFEFE" transform="scale(0.791992 0.791992)" d="M504.166 548.252C510.742 548.871 517.668 551.356 523.991 553.277C523.992 556.538 524.642 568.018 522.444 570.407L521.396 570.135C517.188 568.539 508.72 566.359 506.87 561.992C506.46 561.024 506.481 560.124 506.83 559.163Q508.295 559.359 509.756 559.583L509.883 559.249C509.058 557.91 507.284 557.362 505.909 556.705C505.144 553.92 504.668 551.093 504.166 548.252Z"/>
	<path fill="#FEFEFE" transform="scale(0.791992 0.791992)" d="M208.604 673.083C211.371 672.878 214.194 672.978 216.969 672.97C217.163 679.549 216.725 685.675 215.742 692.184C212.319 692.142 208.957 691.986 205.547 691.68C203.548 691.472 200.489 691.454 198.703 690.586C197.232 689.871 195.959 688.705 195.599 687.04C195.1 684.735 196.271 682.435 197.51 680.577C200.427 676.202 203.561 674.182 208.604 673.083Z"/>
	<path fill="#FEFEFE" transform="scale(0.791992 0.791992)" d="M698.117 558.271L699.09 559.084C700.005 568.056 685.51 628.789 679.696 635.774C678.736 636.927 676.981 636.575 675.608 636.628L674.954 636.125C674.847 633.535 682.147 615.981 683.421 612.067C686.659 602.123 694.675 563.593 698.117 558.271Z"/>
	<path fill="#FEFEFE" transform="scale(0.791992 0.791992)" d="M697.401 462.599C707.752 462.276 714.03 463.621 722.736 469.43C717.198 472.449 713.335 477.189 707.353 479.696C704.149 479.175 701.067 478.963 697.823 478.886C694.874 478.924 692.286 479.576 689.448 480.302C691.319 478.993 696.491 476.917 697.201 475.155C695.729 473.655 693.321 473.214 691.362 472.532C695.421 472.017 699.597 472.008 703.687 471.616C700.572 470.831 694.599 470.181 692.171 468.338L694.185 467.918C693.388 467.259 692.674 466.559 691.951 465.821C692.668 464.165 695.737 463.348 697.401 462.599Z"/>
	<path fill="#FEFEFE" transform="scale(0.791992 0.791992)" d="M914.375 855.696C916.366 855.39 918.541 855.456 920.562 855.362C917.224 865.32 910.305 884.531 903.813 892.225C902.104 892.784 900.326 893.052 898.56 893.371L890.919 894.046C895.053 884.842 899.969 875.931 904.594 866.962C906.183 863.88 907.817 859.537 909.869 856.845C910.724 855.724 913.027 855.852 914.375 855.696Z"/>
	<path fill="#FEFEFE" transform="scale(0.791992 0.791992)" d="M697.412 499.644C708.472 503.499 719.202 509.431 729.607 514.752C724.382 518.498 719.764 521.46 713.429 522.983C711.053 523.206 708.508 523.34 706.152 522.901C698.127 521.407 691.346 515.183 686.719 508.812C689.262 509.893 691.919 510.646 694.559 511.447C696.745 510.625 699.486 509.73 700.763 507.637C700.126 505.473 697.199 504.696 696.386 502.49C696.091 501.691 697.042 500.393 697.412 499.644Z"/>
	<path fill="#FEFEFE" transform="scale(0.791992 0.791992)" d="M488.164 521.793C499.317 522.868 510.721 523.988 521.22 528.125C523.363 534.119 524.239 540.522 525.337 546.775C517.829 545.884 509.78 543.365 502.585 541.056C497.483 534.9 493.382 527.968 488.164 521.793Z"/>
	<path fill="#FEFEFE" transform="scale(0.791992 0.791992)" d="M700.289 443.269C701.895 442.315 703.62 441.163 705.419 440.631C713.324 438.288 725.37 441.361 733.11 443.307Q736.466 444.152 739.757 445.222C736.214 451.627 730.914 456.141 723.78 458.108C719.85 459.192 716.528 459.345 712.568 458.408C711.128 459.222 710.872 459.548 709.132 459.225C709.045 459.209 708.966 459.164 708.884 459.134C705.937 459.044 702.771 459.088 699.979 458.069L700.897 458.347L700.948 456.996L703.805 456.264C705.165 456.044 705.699 455.858 706.707 454.91C705.351 454.96 704.773 455.257 703.651 454.392C704.135 452.447 706.486 450.636 707.883 449.226L708.865 449.451L708.978 448.869L709.329 449.498L711.997 449.437C710.643 448.442 708.061 448.243 706.416 447.949C705.399 447.768 704.934 447.355 704.156 446.719C706.566 446.267 710.828 447.886 713.147 448.65L714.485 448.3L714.6 447.8C712.24 446.262 703.339 444.02 700.289 443.269Z"/>
	<path fill="#FEFEFE" transform="scale(0.791992 0.791992)" d="M757.392 343.467C757.61 343.682 757.791 344.2 757.927 344.482C757.565 348.143 756.278 351.885 755.038 355.332C749.561 370.555 742.105 374.498 728.148 380.95C724.635 382.574 721.311 384.544 717.802 386.179C721.131 380.915 725.224 377.907 730.089 374.245C731.873 372.844 733.812 371.123 734.451 368.879L733.947 368.646C729.168 372.085 725.176 376.487 720.318 379.939Q722.362 376.863 724.497 373.848C724.54 372.785 724.562 371.673 724.737 370.621C725.481 366.149 752.056 347.286 757.392 343.467Z"/>
	<path fill="#FEFEFE" transform="scale(0.791992 0.791992)" d="M491.332 500.228C494.2 499.969 498.003 500.714 500.739 501.641C509.47 504.599 514.416 511.023 518.251 518.974C507.633 519.117 497.101 518.101 486.617 516.486C482.913 516.243 480.856 513.307 478.49 510.802L487.254 513.747C480.846 508.865 472.061 507.312 465.326 502.639C474.01 501.971 482.632 500.728 491.332 500.228Z"/>
	<path fill="#FEFEFE" transform="scale(0.791992 0.791992)" d="M718.363 479.463C729.128 481.604 744.386 484.13 753.762 489.342C743.923 496.855 733.375 502.11 720.777 500.813C715.518 500.196 711.573 499.092 706.807 496.781C710.043 496.105 713.287 495.965 716.579 495.776C715.351 495.019 714.239 494.379 713.301 493.254L713.711 492.428C717.138 490.408 720.788 494.183 724.297 493.738L723.798 492.952C720.842 491.963 717.715 490.662 715.216 488.789C714.249 486.878 715.649 487.715 715.63 485.986L715.149 486.013C712.463 486.139 711.612 485.752 709.615 483.933L709.146 483.498L718.363 479.463Z"/>
	<path fill="#FEFEFE" transform="scale(0.791992 0.791992)" d="M444.367 348.318C444.541 348.481 444.738 348.622 444.888 348.806C446.936 351.306 445.317 360.259 444.666 363.367C440.434 383.583 427.575 395.673 410.898 406.564C412.774 401.364 415.997 398.923 420.062 395.44C422.853 392.527 424.721 389.806 426.328 386.151C422.447 390.683 418.576 395.077 413.976 398.901C418.982 382.855 433.298 361.164 444.367 348.318Z"/>
	<path fill="#FEFEFE" transform="scale(0.791992 0.791992)" d="M526.975 576.243C540.895 577.446 555.295 582.025 568.082 587.473Q566.807 595.28 565.183 603.021L559.379 600.757C548.285 596.145 537.166 592.402 525.806 588.561C526.733 586.648 527.319 585.055 527.607 582.944L527.3 582.861C526.269 584.118 525.346 585.269 524.71 586.776L522.848 591.16C523.179 585.888 524.427 580.888 526.975 576.243Z"/>
	<path fill="#FEFEFE" transform="scale(0.791992 0.791992)" d="M486.679 450.57C487.792 450.537 487.541 450.342 488.47 451.18C488.608 451.831 488.672 452.405 488.547 453.068C487.194 460.256 479.508 466.482 473.697 470.242C467.319 474.368 450.252 481.091 442.814 479.474L442.544 478.769C445.224 475.622 451.249 474.095 455.113 472.647L455.166 472.522L454.816 472.083C450.605 472.129 446.054 474.01 441.763 474.586C444.357 472.553 446.901 470.497 449.371 468.315C448.224 468.867 447.111 469.456 446.029 470.126C445.687 470.337 444.979 470.836 444.562 470.94C443.218 471.279 442.756 470.823 441.765 470.082C441.392 469.039 441.071 468.85 441.478 467.777C446.042 465.024 451.573 463.372 456.532 461.417C466.504 457.487 476.258 453.198 486.679 450.57Z"/>
	<path fill="#FEFEFE" transform="scale(0.791992 0.791992)" d="M752.678 410.711L753.61 410.896C753.648 413.627 747.954 419.485 746.003 421.494C734.188 433.651 723.294 435.384 707.077 435.69C710.996 433.642 714.153 431.804 717.268 428.611C715.181 429.53 712.626 431.07 710.319 430.69L710.345 429.872C711.849 428.205 713.46 427.253 715.41 426.169C718.417 424.166 721.231 422.085 723.998 419.761C721.484 421.129 718.862 422.764 716.135 423.643C715.912 423.715 715.687 423.775 715.464 423.845C712.249 424.853 709.143 424.655 705.811 424.573C709.802 423.093 713.208 421.94 716.206 418.767C712.918 420.272 709.691 421.57 706.242 422.659C718.031 411.9 737.549 411.635 752.678 410.711Z"/>
	<path fill="#FEFEFE" transform="scale(0.791992 0.791992)" d="M467.651 479.575Q469.204 479.487 470.76 479.472C477.101 479.398 492.798 480.968 497.038 486.337C497.949 487.49 497.882 487.881 497.844 489.272C497.374 490.193 497.001 490.807 496.189 491.481C490.512 496.196 467.526 497.592 460.033 497.127L459.307 496.812C459.497 495.827 459.52 496.305 459.263 495.375C454.421 494.18 449.793 491.427 445.491 488.985C449.952 490.195 454.418 490.811 459.049 490.666L458.872 490.239C453.81 488.319 448.352 487.438 443.175 485.782C451.077 483.201 459.59 481.807 467.651 479.575Z"/>
	<path fill="#FEFEFE" transform="scale(0.791992 0.791992)" d="M406.771 619.976Q413.408 622.099 420.023 624.29C417.245 634.649 413.912 644.929 410.805 655.195L399.118 656.858L386.973 658.47C392.38 645.551 399.176 631.748 406.771 619.976Z"/>
	<path fill="#FEFEFE" transform="scale(0.791992 0.791992)" d="M437.954 432.448C438.521 432.594 438.762 432.907 439.187 433.294C439.668 434.621 439.847 435.611 439.719 437.029C438.863 446.507 433.265 456.717 426.023 462.833C421.875 466.336 417.607 469.527 411.903 468.907C410.291 468.731 408.286 468.401 407.259 467.09C408.127 466.904 409.126 466.752 409.945 466.416C411.167 465.915 411.595 465.279 412.181 464.148L411.707 463.821C410.33 464.2 408.717 464.768 407.293 464.859C405.979 464.942 404.573 464.96 403.618 464.024L404.104 462.991C409.191 461.773 413.335 461.25 417.832 458.361C414.938 459.09 408.701 461.372 406.08 460.275C406.158 460.126 406.219 459.966 406.314 459.827C407.681 457.82 411.283 457.291 413.499 456.701L407.55 456.729Q408.716 451.372 409.825 446.004C411.857 443.609 433.526 434.388 437.954 432.448Z"/>
	<path fill="#FEFEFE" transform="scale(0.791992 0.791992)" d="M738.52 453.28C741.377 453.515 744.532 454.466 747.398 454.948C756.518 456.48 765.644 457.888 774.608 460.204C771.322 463.583 767.82 466.742 763.937 469.424C751.996 477.671 737.908 477.54 724.109 474.987C723.46 474.733 723.851 474.94 723.076 474.153C726.47 471.863 730.959 474.053 733.655 472.242C732.105 471.085 729.8 471.238 728.041 470.276C727.102 469.762 727.382 470.096 727.11 469.11C730.315 465.592 735.332 469.536 738.713 467.678L738.867 466.597C738.617 466.374 738.432 466.046 738.118 465.929C736.88 465.469 732.749 466.063 731.249 466.054C728.967 466.04 726.689 465.694 724.43 465.398C728.602 463.712 733.174 463.831 737.507 462.744C732.278 462.198 726.959 462.477 721.709 462.565C727.196 460.207 732.337 458.617 738.134 457.191C738.069 455.62 737.007 456.361 736.292 455.088L738.52 453.28Z"/>
	<path fill="#FEFEFE" transform="scale(0.791992 0.791992)" d="M141.78 861.176C171.476 863.238 200.909 866.599 230.479 869.9Q274.181 874.522 317.808 879.812L350.681 883.767C354.819 884.269 360.604 884.288 364.448 885.667C365.882 886.182 366.264 887.816 366.901 889.087C348.571 888.214 329.921 884.892 311.69 882.705L207.246 870.31C189.199 868.152 171.102 865.857 152.953 864.784C150.358 864.631 145.792 864.948 143.47 863.957C142.101 863.373 142.136 862.467 141.78 861.176Z"/>
	<path fill="#FEFEFE" transform="scale(0.791992 0.791992)" d="M699.813 866.528C701.754 866.538 703.391 866.621 705.126 867.576C707.149 868.689 708.524 870.361 709.162 872.583C710.814 878.328 708.462 885.81 705.468 890.808C701.739 897.034 696.596 900.776 689.619 902.493C688.15 902.499 686.505 902.137 685.173 901.521C683.089 900.556 681.374 899.082 680.592 896.873C679.026 892.45 680.842 886.461 682.74 882.354Q683.048 881.673 683.39 881.009Q683.732 880.344 684.106 879.698Q684.481 879.051 684.887 878.424Q685.293 877.797 685.73 877.191Q686.167 876.584 686.633 876.001Q687.099 875.417 687.594 874.857Q688.089 874.297 688.611 873.763Q689.133 873.228 689.681 872.72Q690.229 872.212 690.802 871.732Q691.374 871.252 691.97 870.801Q692.566 870.35 693.183 869.929Q693.801 869.508 694.438 869.119Q695.076 868.729 695.732 868.371Q696.388 868.014 697.061 867.69Q697.734 867.365 698.423 867.075Q699.111 866.784 699.813 866.528Z"/>
	<path fill="#29233B" transform="scale(0.791992 0.791992)" d="M699.846 870.014C700.989 870.102 701.812 870.17 702.88 870.638C704.562 871.376 705.834 873.178 706.364 874.883C707.707 879.206 705.752 885.164 703.619 888.942C700.606 894.278 696.788 897.478 690.894 899.059C689.545 899.059 688.247 899.054 687.014 898.433C685.588 897.714 684.439 896.4 683.979 894.869C682.702 890.611 684.991 884.633 687.091 880.946C689.959 875.909 694.189 871.629 699.846 870.014Z"/>
	<path fill="#FEFEFE" transform="scale(0.791992 0.791992)" d="M729.715 866.096C731.759 865.861 733.843 865.698 735.83 866.352C738.049 867.081 739.944 868.465 740.876 870.656C742.648 874.824 741.159 880.513 739.505 884.535C736.425 892.026 731.286 897.548 723.778 900.679C721.512 900.968 719.486 901.288 717.305 900.451C715.101 899.606 713.517 898.056 712.669 895.851C710.753 890.865 712.295 883.786 714.541 879.149C717.754 872.517 722.934 868.529 729.715 866.096Z"/>
	<path fill="#29233B" transform="scale(0.791992 0.791992)" d="M730.155 868.523C731.387 868.448 732.758 868.406 733.959 868.759Q734.284 868.857 734.597 868.987Q734.91 869.118 735.208 869.279Q735.507 869.44 735.787 869.631Q736.068 869.821 736.327 870.039Q736.587 870.257 736.824 870.5Q737.06 870.743 737.271 871.009Q737.482 871.275 737.664 871.561Q737.847 871.846 738 872.149C739.342 874.776 738.17 879.16 737.311 881.759C734.959 888.874 730.38 894.077 723.702 897.368C722.524 897.496 721.116 897.737 719.952 897.445C718.163 896.995 716.716 896.097 715.846 894.427C714.098 891.069 715.819 885.07 717.163 881.833C719.725 875.662 724.08 871.156 730.155 868.523Z"/>
	<path fill="#FEFEFE" transform="scale(0.791992 0.791992)" d="M758.078 372.93C758.246 372.96 758.423 372.958 758.581 373.02C759.528 373.391 759.904 374.125 760.296 374.988C759.932 381.472 753.075 390.404 748.705 395.028C746.433 397.433 743.942 399.921 741.235 401.832C735.807 405.663 724.243 410.919 717.683 411.156L717.173 410.671C719.891 407.306 726.186 408.184 728.204 405.24L727.836 404.863C725.689 404.437 720.885 405.581 719.001 406.725C718.856 406.813 718.75 406.951 718.624 407.064L718.264 406.461C720.144 402.046 727.404 402.768 729.331 399.272L727.657 398.119C723.409 400.497 719.632 402.446 714.827 403.397C714.93 403.293 715.032 403.187 715.136 403.084L715.661 402.573C718.401 399.867 721.763 397.551 724.957 395.4C725.103 395.301 725.251 395.206 725.399 395.11C724.326 394.966 723.426 395.045 722.4 395.377C720.101 396.12 717.987 397.645 715.671 398.506C711.83 399.935 707.578 400.762 703.623 401.85C704.818 399.828 706.649 396.238 708.567 394.922C711.033 393.23 714.719 392.343 717.498 391.053C730.908 384.826 744.488 378.761 758.078 372.93Z"/>
	<path fill="#FEFEFE" transform="scale(0.791992 0.791992)" d="M643.283 637.228C649.705 636.546 674.205 646.256 681.857 649.096C674.845 651.772 669.464 654.897 663.539 659.562C658.598 658.348 653.737 656.739 648.873 655.251C633.926 650.723 618.451 646.136 604.073 639.993C617.085 638.604 630.216 637.882 643.283 637.228Z"/>
	<path fill="#FEFEFE" transform="scale(0.791992 0.791992)" d="M529.638 552.53C542.167 551.737 561.515 556.986 573.473 561.346C572.166 567.979 571.477 575.075 569.722 581.561C559.195 577.588 548.82 574.38 537.863 571.824C535.228 571.209 529.114 570.642 527.476 568.906C528.695 568.284 529.623 567.467 530.925 566.917C530.898 566.244 530.788 565.562 530.71 564.893L529.499 563.955C528.575 563.088 528.556 562.929 528.53 561.595C528.473 558.672 529.223 555.436 529.638 552.53Z"/>
	<path fill="#43404E" transform="scale(0.791992 0.791992)" d="M529.499 563.955C530.355 562.397 531.124 560.083 532.487 558.997L533.262 559.356C533.728 560.758 533.558 561.956 533.423 563.392C533.312 563.583 533.188 563.768 533.09 563.967C532.601 564.957 532.608 565.679 532.548 566.759L531.907 567.177L530.925 566.917C530.898 566.244 530.788 565.562 530.71 564.893L529.499 563.955Z"/>
	<path fill="#252133" transform="scale(0.791992 0.791992)" d="M533.423 563.392C534.132 565.726 534.584 567.066 536.899 568.21C539.292 569.392 542.16 569.723 544.677 570.676C538.797 570.854 533.167 568.73 527.476 568.906C528.695 568.284 529.623 567.467 530.925 566.917L531.907 567.177L532.548 566.759C532.608 565.679 532.601 564.957 533.09 563.967C533.188 563.768 533.312 563.583 533.423 563.392Z"/>
	<path fill="#FEFEFE" transform="scale(0.791992 0.791992)" d="M672.263 546.748C701.487 546.834 730.583 547.492 759.684 550.398C804.067 554.83 849.16 564.424 892.008 576.777C910.12 581.999 927.492 589.269 945.495 594.691C951.571 592.151 958.044 590.832 964.218 588.518C959.555 601.81 952.524 611.139 940.58 618.634C943.789 614.787 948.132 612.018 951.425 608.151C955.322 603.41 958.141 598.321 960.498 592.668C958.051 593.231 952.73 593.853 950.974 595.608C952.483 596.425 953.762 597.156 955.01 598.343L954.658 598.692C945.179 598.339 934.399 593.315 925.492 590.209C914.928 586.526 904.386 582.815 893.605 579.802C855.973 569.283 817.581 560.329 778.804 555.259Q749.126 551.556 719.251 550.133Q689.377 548.711 659.481 549.579C657.339 549.661 650.3 550.516 648.98 549.353L649.79 548.152C654.477 545.919 666.628 546.829 672.263 546.748Z"/>
	<path fill="#FEFEFE" transform="scale(0.791992 0.791992)" d="M736.501 640.28C747.776 639.511 759.378 639.882 770.661 640.246C805.978 641.388 842.479 645.136 876.216 656.212C879.829 657.398 886.916 658.876 889.58 661.368C890.506 662.234 890.943 663.195 890.82 664.474C890.311 669.734 883.296 679.708 879.475 683.079C878.409 684.019 877.889 684.056 876.509 683.994L876.157 683.5C877.437 681.476 879.164 679.705 880.619 677.798Q883.115 674.578 885.1 671.021Q887.085 667.464 888.514 663.649C870.45 655.595 849.408 651.942 830.07 648.405C821.604 647.209 813.24 645.816 804.717 645.026C787.438 643.425 734.132 640.583 719.393 645.175C713.414 647.038 707.89 650.171 702.188 652.72C692.522 657.042 682.554 661.009 673.24 666.056C669.338 668.169 666.173 671.426 662.202 673.492C660.936 673.531 660.389 673.374 659.285 672.756L659.188 671.888C660.01 669.891 661.033 668.224 662.504 666.629C673.21 655.026 705.044 644.529 720.407 641.66C725.751 640.663 731.086 640.468 736.501 640.28Z"/>
	<path fill="#FEFEFE" transform="scale(0.791992 0.791992)" d="M444.87 386.453C446.133 388.566 445.766 392.444 445.447 394.786C443.756 407.194 437.511 422.347 427.223 430.035C424.366 432.17 410.513 440.301 407.239 439.162C407.136 439.126 406.405 438.008 406.226 437.866C405.009 436.907 401.697 436.73 400.153 436.497C404.96 433.054 411.054 431.738 415.631 428.201C414.499 427.896 412.274 429.146 411.117 429.618C408.332 430.74 405.302 431.157 402.362 431.706C402.758 431.275 403.16 430.861 403.569 430.443C407.034 426.903 415.864 424.612 417.821 420.583L416.989 420.478C413.143 423.156 409.302 424.816 404.866 426.287C405.847 423.322 406.649 420.399 407.32 417.349C413.74 410.998 421.611 405.771 428.762 400.25C434.365 395.923 439.606 391.18 444.87 386.453Z"/>
	<path fill="#FEFEFE" transform="scale(0.791992 0.791992)" d="M673.783 701.725C684.369 701.327 695.032 701.434 705.63 701.322C708.319 703.891 710.748 706.545 713.043 709.469C683.292 709.352 651.897 711.589 622.064 712.85Q605.919 713.527 589.764 713.865Q586.397 711.145 583.072 708.375C589.939 706.378 598.096 706.205 605.214 705.553Q639.441 702.611 673.783 701.725Z"/>
	<path fill="#FEFEFE" transform="scale(0.791992 0.791992)" d="M893.01 586.942L893.481 587.055C893.886 588.942 890.429 594.971 889.551 596.972C882.753 612.475 876.335 629.032 870.992 645.095C864.794 643.372 858.401 641.972 852.071 640.836C849.726 640.366 847.405 639.716 845.085 639.133C857.5 619.252 871.025 597.026 893.01 586.942Z"/>
	<path fill="#FEFEFE" transform="scale(0.791992 0.791992)" d="M676.546 562.253C676.63 562.43 676.733 562.601 676.8 562.786C678.224 566.733 677.609 573.104 678.24 577.429C679.492 586.021 681.71 595.32 681.202 604.04C680.665 613.255 674.202 627.078 670.825 636.099Q662.489 635.451 654.145 634.931C651.806 634.617 649.429 634.458 647.079 634.233C657.917 616.962 665.798 597.226 672.06 577.869C673.728 572.711 674.851 567.401 676.546 562.253Z"/>
	<path fill="#FEFEFE" transform="scale(0.791992 0.791992)" d="M496.584 408.96C497.052 409.156 496.733 408.987 497.341 409.736C496.73 415.039 492.912 421.258 490.097 425.708C476.075 447.876 459.969 455.421 435.301 460.861C441.204 455.888 447.921 453.369 454.233 449.134C448.95 450.171 444.442 452.834 439.339 454.33C439.887 453.187 441.757 452.213 442.83 451.458C447.507 448.215 454.014 446.19 459.327 443.98C456.37 444.545 442.002 449.314 441.133 448.921C443.828 445.935 447.406 443.999 450.987 442.277C447.898 443.031 445.175 444.402 442.328 445.779L444.52 438.4C458.281 429.053 481.369 415.451 496.584 408.96Z"/>
	<path fill="#FEFEFE" transform="scale(0.791992 0.791992)" d="M793.293 420.726C796.524 420.595 799.778 420.64 803.012 420.61C799.16 426.747 793.969 432.189 788.441 436.836C778.326 445.34 764.601 450.968 751.168 449.556C748.704 449.297 746.142 448.924 744.546 446.945C744.455 445.259 745.674 443.774 746.532 442.393C748.94 442.306 751.153 442.206 753.498 441.57L753.622 441.026L753.947 441.237L753.032 441.637L752.437 440.783Q747.381 440.368 742.329 439.897L740.696 438.613C740.817 434.85 756.363 436.389 758.963 433.916C757.019 432.227 748.078 433.968 745.228 434.004C743.905 434.021 743.169 433.914 742.191 433.036C742.594 431.4 744.293 430.404 745.558 429.404C747.532 429.792 752.37 431.219 754.104 430.487C751.809 429.37 749.497 428.81 747.034 428.214L752.159 423.698C756.877 423.281 761.583 422.44 766.327 422.036C775.292 421.273 784.303 421.018 793.293 420.726Z"/>
	<path fill="#FEFEFE" transform="scale(0.791992 0.791992)" d="M814.939 373.557L816.032 373.504L816.506 374.184C815.447 379.694 812.541 385.126 809.542 389.812C793.986 414.126 782.136 412.896 755.877 418.65C760.966 411.033 765.307 412.556 771.453 407.538C768.51 408.385 763.554 411.184 760.562 410.535C759.241 410.248 758.881 409.533 758.144 408.524C758.644 407.013 760.608 406.386 761.876 405.316C760.456 404.098 752.633 405.979 750.173 405.946C749.949 405.943 749.725 405.935 749.501 405.929L748.574 405.534L748.692 404.665L749.705 404.222C750.753 404.522 752.395 405.107 753.491 405.022C755.219 404.889 758.94 402.565 760.732 401.88C765.851 399.927 772.341 397.944 777.835 397.55C778.032 397.536 778.229 397.528 778.427 397.516L778.942 396.159L779.058 396.752L778.487 396.648L778.26 396.038C776.093 396.303 773.987 397.329 771.852 397.855L750.47 403.048C752.17 400.828 754.072 397.73 756.4 396.189C763.416 391.546 778.917 387.233 787.209 384.134C796.485 380.667 805.468 376.486 814.939 373.557Z"/>
	<path fill="#FEFEFE" transform="scale(0.791992 0.791992)" d="M524.391 525.477C538.252 523.341 570.896 524.598 582.387 533.023C585.544 535.338 587.972 538.755 588.401 542.724C588.6 544.566 588.492 546.504 588.397 548.354C583.736 550.96 578.811 553.449 574.486 556.578C563.507 552.472 545.112 547.255 533.665 545.938C532.955 545.856 533.212 545.887 532.384 545.568C534.065 545.131 535.398 544.566 536.649 543.309C537.571 542.384 537.843 541.832 537.861 540.55L537.099 540.151L535.797 541.273L535.107 541.017C534.985 540.044 535.119 539.549 535.537 538.686C535.684 538.384 535.837 538.085 535.987 537.785C535.24 536.996 534.445 536.99 533.415 536.728L533.819 536.688L533.411 536.724C533.909 537.313 534.237 537.661 534.501 538.396C533.995 539.518 533.767 540.167 532.682 540.804C531.365 538.923 532.689 536.263 531.395 534.355C530.66 535.164 530.389 535.831 530.305 536.931C530.092 539.739 530.194 543.647 532.048 545.748L531.004 546.482L530.246 546.049C528.623 538.963 527.078 532.251 524.391 525.477Z"/>
	<path fill="#FEFEFE" transform="scale(0.791992 0.791992)" d="M162.663 873.589C168.078 872.914 178.022 875.181 183.715 875.94Q214.448 879.847 245.051 884.668L372.294 902.705C373.276 905.458 374.492 907.889 375.889 910.445C371.639 910.04 367.416 909.407 363.189 908.812L219.159 887.054C194.881 883.448 170.215 878.114 145.714 876.62C151.455 875.982 157.05 874.951 162.663 873.589Z"/>
	<path fill="#FEFEFE" transform="scale(0.791992 0.791992)" d="M534.32 468.293C543.157 467.684 552.979 466.872 561.135 471.064C570.276 475.764 575.161 485.146 578.102 494.544C559.274 487.263 538.201 487.097 518.25 488.242C514.523 488.468 505.652 489.949 502.909 487.624L503.26 486.501C505.169 485.047 510.197 484.915 512.681 484.56C509.976 484.117 507.112 484.131 504.464 483.426C501.278 482.579 498.763 480.286 495.87 478.856C493.682 477.775 491.161 477.13 488.833 476.4C491.584 476.215 494.298 475.954 497.032 475.601C493.195 475.348 488.203 475.435 484.586 474.054C483.556 473.661 483.869 473.952 483.475 473.029C484.365 472.122 485.182 471.957 486.417 471.794C490.878 471.205 495.694 471.28 500.219 470.918Q517.257 469.446 534.32 468.293Z"/>
	<path fill="#FEFEFE" transform="scale(0.791992 0.791992)" d="M816.942 319.959L817.341 320.43C818.787 328.843 816 337.034 812.791 344.752C806.747 359.287 795.472 372.381 781.648 380.018C774.961 383.712 767.388 386.419 760.308 389.305C765.388 380.618 770.741 379.968 777.749 374.076C777.921 373.932 778.088 373.784 778.258 373.638C774.11 374.869 770.232 376.979 766.14 378.433C764.92 378.061 765.373 378.43 764.754 377.363C765.609 375.616 767.886 374.596 769.497 373.596C771.013 372.637 772.404 371.453 773.813 370.341C770.904 371.257 768.223 372.391 765.459 373.673L765.417 373.006C765.363 372.058 765.144 370.531 765.496 369.636C766.54 366.981 774.54 361.683 777.225 358.657C772.45 361.164 768.243 365.142 763.4 367.353C759.953 368.927 756.473 369.232 752.958 371.147C753.472 370.538 753.995 369.944 754.52 369.346C761.059 361.896 776.016 353.48 784.496 347.177C795.723 338.833 806.708 329.485 816.942 319.959Z"/>
	<path fill="#FEFEFE" transform="scale(0.791992 0.791992)" d="M499.318 306.853C500.787 311.668 499.302 318.918 498.309 323.772C497.008 330.137 494.681 335.82 492.134 341.76C484.745 358.993 477.803 368.948 463.495 381.246C460.105 384.159 456.715 387.293 452.971 389.744L452.453 389.565L452.136 388.316C453.159 384.077 458.197 380.127 460.819 376.56C458.315 378.276 455.867 381.323 453.16 382.522C452.124 382.98 451.978 382.924 451.002 382.512L450.72 381.399C452.125 378.89 454.425 376.936 456.448 374.919C461.062 370.233 465.452 365.39 469.356 360.092C462.3 365.21 456.744 371.987 449.678 377.081C449.861 374.679 449.859 372.247 450.855 370.022C452.196 368.943 453.034 368.494 453.305 366.773C452.519 366.604 451.965 366.469 451.268 366.042C450.617 365.643 450.446 365.177 450.356 364.404C450.19 362.968 451.466 360.288 452.281 359.134C455.54 354.519 465.057 345.49 469.499 340.55C479.496 329.434 488.765 317.417 499.318 306.853Z"/>
	<path fill="#FEFEFE" transform="scale(0.791992 0.791992)" d="M501.44 353.918L502.007 354.567C502.859 361.719 498.654 371.783 496.1 378.399C493.039 386.33 486.014 403.535 480.169 409.074C476.034 412.994 470.12 415.829 465.224 418.733C459.071 422.381 453.058 426.125 446.516 429.05C445.149 428.835 445.159 428.854 444.248 427.816C444.248 427.384 444.1 426.926 444.247 426.519C444.571 425.62 462.447 411.374 465.059 408.691C461.454 410.801 458.084 413.075 454.723 415.553C450.824 418.264 446.922 420.913 442.881 423.411C447.496 416.66 454.013 411.091 460.385 406.058L459.669 406.365C459.311 406.521 458.957 406.688 458.594 406.832C454.468 408.475 451.191 411.402 447.29 413.5L446.845 413.251C447.731 409.896 450.63 407.766 451.687 404.555L450.01 404.624L449.593 403.463C450.279 401.518 451.394 399.528 452.838 398.043C459.127 391.574 466.987 386.377 473.652 380.238C483.011 371.617 491.348 361.701 501.44 353.918Z"/>
	<path fill="#FEFEFE" transform="scale(0.791992 0.791992)" d="M535.304 494.21C542.041 493.572 549.394 493.818 556.108 494.373C563.937 495.019 575.03 496.209 580.306 502.755C585.865 509.651 584.611 519.223 583.611 527.346C572.296 522.294 560.049 520.432 547.882 518.695C540.931 518.122 533.907 516.066 527.049 514.731C530.537 514.022 533.855 513.213 537.221 512.051C535.25 511.832 533.521 511.699 531.546 511.938C530.633 512.049 529.849 512.279 528.949 511.911C527.704 511.402 527.177 510.247 526.713 509.091C526.299 508.057 526.313 507.832 525.445 507.077C524.008 507.537 522.866 507.833 521.771 508.942C520.806 511.431 522.31 514.174 523.204 516.538C518.227 508.498 514.358 502.367 505.624 498.015C515.505 496.037 525.254 494.851 535.304 494.21Z"/>
	<path fill="#FEFEFE" transform="scale(0.791992 0.791992)" d="M808.448 279.309C809.194 279.801 809.586 280.135 810.012 280.949C812.671 286.033 810.082 299.424 808.395 304.843C800.98 328.673 781.421 346.99 759.83 358.428C760.605 356.143 761.314 353.647 762.547 351.569C765.247 347.019 769.606 343.288 773.065 339.301C775.378 336.636 777.276 333.659 779.178 330.695C776.858 332.806 774.856 335.232 772.733 337.537C771.222 339.178 766.528 344.91 764.326 345.006L763.808 343.914C764.395 339.946 770.037 335.179 772.749 332.238C770.141 334.369 766.04 338.444 762.569 338.784C767.989 330.715 780.493 326.419 784.143 317.325C782.839 317.257 782.262 317.422 781.153 318.135C774.475 322.429 768.373 328.655 762.286 333.785C755.598 339.423 748.578 344.652 741.959 350.378C737.384 354.336 731.025 361.685 725.642 364.049C724.644 363.794 724.484 361.765 723.628 360.581C725.537 357.496 736.773 348.907 740.248 345.798Q756.691 330.979 772.79 315.786C785.171 304.053 796.817 291.775 808.448 279.309Z"/>
	<path fill="#FEFEFE" transform="scale(0.791992 0.791992)" d="M760.066 479.881C776.758 482.61 801.366 492.525 816.534 500.419C830.055 507.457 833.635 512.185 849.399 516.002C847.459 517.048 845.508 518.107 843.5 519.016C819.859 529.707 799.825 519.598 777.37 511.28C771.837 509.024 758.787 502.819 754.176 499.637L754.09 498.874L755.2 498.188C763.673 497.588 772.438 502.022 780.278 504.67C776.091 502.146 771.606 499.62 767.06 497.806C764.102 496.626 760.947 495.874 758.045 494.55C757.053 494.098 757.229 493.754 756.925 492.788C762.376 490.829 768.795 492.8 774.447 491.771C770.745 491.679 765.14 492.098 761.765 490.545C762.295 489.692 762.455 489.442 762.563 488.41C762.269 488.281 761.992 488.105 761.682 488.022C759.167 487.347 757.727 487.437 755.344 485.986L755.5 485.652C767.395 487.386 772.36 487.217 783.676 492.539C781.427 490.648 779.264 489.119 776.531 487.959C772.854 486.399 761.773 484.678 759.86 482.157C759.374 481.517 759.89 480.599 760.066 479.881Z"/>
	<path fill="#FEFEFE" transform="scale(0.791992 0.791992)" d="M745.978 503.343C750.075 503.907 754.534 505.939 758.327 507.542C764.199 510.024 770.034 512.614 775.045 516.626C777.935 518.941 780.451 521.773 783.022 524.43C790.84 532.513 797.693 538.023 808.433 541.709L797.025 542.966C796.931 542.872 796.839 542.776 796.743 542.685C796.582 542.534 796.415 542.39 796.254 542.239C795.728 541.749 781.137 534.037 780.053 533.647C782.468 538.714 791.289 539.853 795.768 542.639L795.402 543.309C788.788 545.503 768.008 540.197 759.637 539.406C740.045 537.553 720.231 537.701 700.582 536.266C694.538 531.886 688.803 524.533 684.417 518.486C684.621 518.184 684.829 517.844 685.105 517.602C686.097 516.732 686.844 516.517 688.112 517.059C689.356 517.59 690.931 519.034 692.072 519.825C697.5 523.585 703.602 528.31 710.309 529.3C717.014 530.29 722.517 527.31 727.715 523.49C734.31 526.058 740.289 529.96 746.809 532.642C750.029 533.966 753.492 534.499 756.801 535.546C758.816 536.183 761.386 537.522 763.481 537.336C762.82 534.779 758.602 534.149 756.528 532.594C750.765 528.273 741.611 525.596 736.725 521.354C735.769 520.523 735.19 519.99 735.07 518.689C737.965 518.154 751.83 525.693 757.48 525.555C754.676 520.809 740.784 521.019 737.914 515.778C738.752 515.044 738.933 514.946 740.104 514.938C742.978 514.917 746.894 515.481 748.992 517.528C749.095 517.628 749.194 517.733 749.295 517.836L749.694 517.119L749.354 516.036C745.544 512.333 738.303 510.907 733.259 508.903C736.491 508.91 740.395 508.662 743.508 509.529C745.247 510.014 746.729 511.11 748.498 511.547L748.886 510.935C747.626 508.38 743.607 507.125 741.154 505.956C742.804 505.189 744.386 504.227 745.978 503.343Z"/>
	<path fill="#FEFEFE" transform="scale(0.791992 0.791992)" d="M603.919 426.232L604.162 426.396L604.21 427.12Q601.275 430.854 598.042 434.332Q594.81 437.811 591.301 441.011Q587.792 444.211 584.031 447.111Q580.27 450.01 576.283 452.59C572.792 454.864 569.272 456.978 565.147 457.868C560.138 458.951 492.6 463.902 489.595 463.257L490.306 462.365L489.739 463.426L490.193 462.449C492.876 460.519 496.506 459.123 499.611 458.025L504.515 457.181L504.184 456.95C500.742 456.234 497.415 457.172 494.215 458.415C493.237 458.795 493.818 458.723 492.593 458.501C492.587 458.338 492.561 458.173 492.574 458.01C492.766 455.667 495.017 454.812 496.445 453.33C495.898 452.767 495.385 452.307 494.752 451.833C494.543 451.678 494.331 451.527 494.12 451.374L494.377 450.6C497.392 448.771 501.655 448.138 505.068 447.147C526.687 440.875 548.509 436.605 570.601 432.42C581.677 430.322 592.769 427.875 603.919 426.232Z"/>
	<path fill="#EC173B" transform="scale(0.791992 0.791992)" d="M352.801 784.919C352.375 786.885 352.065 788.982 351.412 790.881C350.762 793.93 350.176 796.908 349.885 800.015C348.287 813.115 347.662 825.87 347.486 839.052C332.855 837.113 311.845 837.655 296.49 837.248C300.596 827.17 305.14 817.286 308.914 807.072L309.74 804.733Q311.27 800.192 312.917 795.693C313.815 793.603 314.451 791.356 315.172 789.197C327.683 788.43 340.297 786.172 352.801 784.919Z"/>
	<path fill="#FEFEFE" transform="scale(0.791992 0.791992)" d="M352.801 784.919C352.375 786.885 352.065 788.982 351.412 790.881C350.762 793.93 350.176 796.908 349.885 800.015C336.497 801.36 323.021 802.538 309.74 804.733Q311.27 800.192 312.917 795.693C313.815 793.603 314.451 791.356 315.172 789.197C327.683 788.43 340.297 786.172 352.801 784.919Z"/>
	<path fill="#EC173B" transform="scale(0.791992 0.791992)" d="M352.801 784.919C352.375 786.885 352.065 788.982 351.412 790.881C338.605 792.244 325.618 793.583 312.917 795.693C313.815 793.603 314.451 791.356 315.172 789.197C327.683 788.43 340.297 786.172 352.801 784.919Z"/>
	<path fill="#FEFEFE" transform="scale(0.791992 0.791992)" d="M648.561 528.513C649.1 528.59 648.821 528.477 649.308 529.021C639.608 543.647 633.827 560.488 623.991 575.023C613.807 579.713 587.119 590.671 576.511 587.395C575.992 586.903 575.352 586.354 574.957 585.758C572.719 582.376 577.231 564.391 578.195 559.557C599.551 546.801 625.063 536.547 648.561 528.513Z"/>
	<path fill="#FEFEFE" transform="scale(0.791992 0.791992)" d="M780.095 454.074C787.438 455.278 794.695 457.006 802.027 458.294C811.905 460.029 821.807 461.347 831.581 463.652C850.684 468.156 871.475 480.218 891.22 477.315C887.92 481.591 884.033 484.852 879.416 487.625C859.091 499.835 845.75 498.408 823.894 493.067C813.365 490.762 802.732 487.687 792.493 484.327C783.482 481.37 774.137 477.028 764.668 476.083L769.635 473.019C779.25 472.609 788.137 474.955 797.583 476.297C789.84 472.969 781.647 470.533 773.252 469.702C775.418 467.446 777.452 465.127 779.452 462.722C788.882 464.698 798.584 467.252 808.213 467.819C799.782 464.576 789.945 462.597 781.156 460.512C781.702 459.535 782.438 458.48 782.573 457.354C782.668 456.557 780.703 454.757 780.095 454.074Z"/>
	<path fill="#FEFEFE" transform="scale(0.791992 0.791992)" d="M720.243 364.392L720.873 365.504C718.748 378.805 711.254 385.944 703.398 396.117C699.351 401.357 695.749 407.445 693.304 413.603C683.868 437.373 683.475 462.962 675.746 487.075C673.261 494.829 669.463 502.766 665.47 509.866C663.567 513.249 661.354 516.4 659.628 519.886L659.334 520.49C643.154 522.942 631.842 526.722 616.768 532.516C616.261 531.76 618.396 530.354 619.052 529.742C624.873 524.316 630.589 518.458 635.654 512.328C645.446 500.477 653.091 487.978 655.376 472.581C656.263 466.61 656.463 460.527 657.136 454.527C660.475 424.723 675.839 405.604 696.728 385.485C704.285 378.206 712.04 370.942 720.243 364.392Z"/>
	<path fill="#FEFEFE" transform="scale(0.791992 0.791992)" d="M806.98 426.684C820.43 426.138 833.794 425.369 847.264 425.511C873.684 425.789 902.695 430.566 927.674 419.829C920.893 435.606 911.166 447.939 894.795 454.612C869.408 464.959 836.056 458.09 810.006 453.576C802.679 452.307 791.889 451.164 785.178 448.476C789.037 446.292 807.277 449.247 809.206 446.264C803.738 444.339 795.15 444.436 789.281 444.432C791.482 442.534 793.55 440.127 796.524 439.721C796.547 438.796 796.719 438.379 797.194 437.589C799.26 433.632 804.217 430.412 806.98 426.684Z"/>
	<path fill="#252133" transform="scale(0.791992 0.791992)" d="M797.194 437.589C806.549 436.6 816.674 436.686 826.025 437.793C825.139 438.528 800.18 439.538 796.524 439.721C796.547 438.796 796.719 438.379 797.194 437.589Z"/>
	<path fill="#FEFEFE" transform="scale(0.791992 0.791992)" d="M637.959 368.086L638.167 368.394C638.316 370.653 636.654 373.232 635.619 375.189C630.534 384.806 614.233 413.461 604.667 416.147C595.448 418.735 585.844 420.371 576.516 422.618C554.789 427.852 532.943 432.334 511.14 437.195C504.034 438.779 497.049 440.902 489.95 442.459C488.738 442.725 487.193 443.291 486.099 442.707C490.13 438.402 502.151 435.87 507.783 433.06C506.383 432.421 503.454 433.773 502.037 434.25C498.777 435.297 494.119 437.478 490.716 437.325L490.49 436.642C492.945 433.221 492.946 435.616 495.628 434.407L494.379 433.875L494.524 433.166C498.533 429.931 504.206 427.881 508.938 425.89C503.263 427.083 499.01 428.386 494.001 431.321C496.944 426.671 499.607 421.922 502.235 417.091C515.3 411.326 529.085 407.133 542.453 402.135C560.401 395.423 578.241 388.369 596.294 381.941C610.07 377.036 624.074 372.68 637.959 368.086Z"/>
	<path fill="#FEFEFE" transform="scale(0.791992 0.791992)" d="M350.569 613.714C355.239 613.429 359.901 613.533 364.575 613.601C361.365 621.078 357.323 628.326 353.586 635.553L336.721 668.352Q297.581 673.518 258.599 679.764C253.969 680.412 249.352 681.288 244.74 682.062Q248.753 676.504 253.332 671.401C261.611 662.154 270.514 653.154 279.379 644.474C286.151 637.842 293.207 630.475 301.272 625.429C313.65 617.685 336.326 614.475 350.569 613.714Z"/>
	<path fill="#FEFEFE" transform="scale(0.791992 0.791992)" d="M947.927 358.04C948.186 358.295 948.193 358.249 948.31 358.695C949.64 363.741 943.537 377.237 940.903 381.713C930.449 399.471 912.061 408.681 892.67 413.617Q882.21 416.203 871.504 417.412C865.497 418.121 811.723 422.154 809.624 420.904C809.946 418.861 809.59 417.828 808.8 415.923C808.71 415.706 808.615 415.491 808.522 415.276Q821.338 413.507 834.175 411.9C840.294 411.177 846.846 410.865 852.829 409.453C837.213 409.209 821.895 412.482 806.375 412.551L798.048 412.796C799.447 411.681 800.856 410.504 802.548 409.867C806.425 408.408 810.83 407.948 814.901 407.253C826.106 405.342 837.575 404.327 848.701 402.228L848.922 401.259L849.197 401.691C843.629 402.496 837.844 402.405 832.219 402.983C823.38 403.891 814.576 405.441 805.801 406.831C807.343 404.151 809.266 401.597 811.004 399.033C828.908 394.543 846.505 388.61 864.371 383.889C872.858 381.646 881.373 379.228 889.952 377.365C913.056 372.35 926.802 370.93 947.927 358.04Z"/>
	<path fill="#FEFEFE" transform="scale(0.791992 0.791992)" d="M92.1406 738.626C119.181 706.186 145.883 706.877 184.156 701.786C182.354 703.862 180.504 705.898 178.768 708.031C165.657 724.137 160.838 741.986 160.25 762.395C160.104 767.456 159.929 772.653 160.432 777.694C160.233 787.149 161.28 797.011 162.754 806.347C154.254 807.764 145.073 808.706 136.461 809.092C134.857 790.095 131.844 761.964 116.893 748.277C113.07 744.777 108.138 742.607 102.894 742.922C83.9363 744.059 75.4702 773.671 73.0286 788.91C72.588 791.66 72.121 808.204 71.0474 809.359C72 796.011 72.5028 783.752 76.4928 770.791C80.4265 758.014 87.5015 742.638 100.176 736.33C104.693 734.081 109.441 733.879 114.18 735.564C131.358 741.674 137.893 763.691 144.643 778.653C142.999 765.756 140.926 751.984 132.394 741.6C127.306 735.408 119.628 731.246 111.592 730.668C103.751 730.104 97.8731 733.815 92.1406 738.626Z"/>
	<path fill="#FEFEFE" transform="scale(0.791992 0.791992)" d="M100.65 757.065C102.116 756.971 103.738 756.829 105.186 757.094C109.324 757.85 112.896 761.748 115.087 765.085C128.19 785.046 127.956 818.422 123.111 840.933C120.545 852.855 116.328 867.424 105.445 874.435C103.669 874.635 101.819 874.738 100.072 874.284C94.7683 872.908 90.9074 868.244 88.3883 863.631C77.1834 843.111 77.247 803.327 83.7149 781.56C86.6571 771.658 91.2768 762.181 100.65 757.065Z"/>
	<path fill="#252133" transform="scale(0.791992 0.791992)" d="M89.3558 848.608C91.5981 854.425 94.2368 863.166 100.363 865.862C103.266 867.139 106.135 866.577 108.926 865.315C109.084 865.243 109.239 865.165 109.396 865.09L110.282 867.038C109.041 868.169 107.782 869.407 106.192 870.026C104.136 870.827 101.866 870.615 99.9278 869.6C93.2543 866.103 89.5446 855.269 87.4343 848.567L89.3558 848.608Z"/>
	<path fill="#252133" transform="scale(0.791992 0.791992)" d="M87.4343 848.567C86.2687 843.818 85.2719 839.11 84.6275 834.259C81.8512 813.359 81.518 785.153 95.1557 767.596C97.3766 764.737 100.451 761.199 104.29 760.883C107.22 760.642 109.067 761.851 111.149 763.749L110.601 763.951C105.887 763.263 102.657 763.467 98.7317 766.558C89.4626 773.858 86.2735 791.657 85.2907 802.659C83.9391 817.789 84.9511 834.018 89.3558 848.608L87.4343 848.567Z"/>
	<path fill="#29233B" transform="scale(0.791992 0.791992)" d="M89.3558 848.608C84.9511 834.018 83.9391 817.789 85.2907 802.659C86.2735 791.657 89.4626 773.858 98.7317 766.558C102.657 763.467 105.887 763.263 110.601 763.951L111.149 763.749C115.616 768.38 118.924 777.02 120.296 783.191C122.386 790.061 123.334 797.609 123.642 804.781C124.988 822.289 121.878 852.911 110.379 866.926C110.348 866.964 110.314 867.001 110.282 867.038L109.396 865.09C109.239 865.165 109.084 865.243 108.926 865.315C106.135 866.577 103.266 867.139 100.363 865.862C94.2368 863.166 91.5981 854.425 89.3558 848.608Z"/>
	<path fill="#FEFEFE" transform="scale(0.791992 0.791992)" d="M97.9742 826.155C101.055 825.88 104.801 825.238 107.554 826.972L107.087 827.602C104.907 828.206 102.879 828.059 100.647 827.976C98.0173 828.046 94.149 829.072 91.7422 827.971C93.803 826.999 95.7524 826.564 97.9742 826.155Z"/>
	<path fill="#252133" transform="scale(0.791992 0.791992)" d="M123.642 804.781C122.198 803.971 121.722 803.864 121.336 802.241C120.458 798.55 118.28 786.389 120.296 783.191C122.386 790.061 123.334 797.609 123.642 804.781Z"/>
	<path fill="#FEFEFE" transform="scale(0.791992 0.791992)" d="M89.3558 848.608C84.9511 834.018 83.9391 817.789 85.2907 802.659C86.2735 791.657 89.4626 773.858 98.7317 766.558C102.657 763.467 105.887 763.263 110.601 763.951C114.197 769.055 111.131 798.293 111.004 805.797C104.841 805.431 98.448 805.338 92.4882 803.588L92.4788 803.197C97.8829 802.35 103.859 803.214 109.257 803.874C104.533 797.081 101.617 788.282 99.8989 780.243C103.989 787.171 106.457 794.829 109.968 802.037C110.038 797.397 111.615 768.552 109.122 765.682C106.339 765.015 103.274 766.292 100.91 767.733C94.2572 771.785 90.8022 783.26 89.2068 790.628C84.968 810.204 85.3002 842.33 96.8928 859.618C97.9043 861.127 99.0902 862.373 100.429 863.59C100.546 852.53 105.189 835.61 110.233 825.683C109.297 825.452 108.669 825.49 107.717 825.542C107.773 824.53 107.562 824.836 108.318 824.199C108.958 823.66 109.357 823.333 110.214 823.35C110.835 823.363 111.674 823.636 112.254 823.779C113.302 823.111 113.532 822.946 113.898 821.662C114.98 817.857 114.052 814.623 116.562 811.091C117.641 810.519 118.007 810.229 119.268 810.653C120.562 811.089 121.488 812.058 121.837 813.347C122.434 815.552 122.434 823 121.207 824.843C120.813 825.434 120.396 825.948 119.661 826.038C117.346 826.322 115.433 823.801 113.294 824.426C113.021 827.673 113.841 831.142 113.975 834.417C114.145 838.584 114.823 857.613 112.184 859.924C111.621 858.911 111.659 858.346 111.744 857.206L113.103 855.259C112.991 845.335 112.654 835.351 113.054 825.434C108.194 834.094 101.319 853.407 101.266 862.81C101.752 863.718 101.845 863.917 102.905 864.229C104.992 864.842 107.386 864.155 109.396 865.09C109.239 865.165 109.084 865.243 108.926 865.315C106.135 866.577 103.266 867.139 100.363 865.862C94.2368 863.166 91.5981 854.425 89.3558 848.608Z"/>
	<path fill="#FEFEFE" transform="scale(0.791992 0.791992)" d="M658.17 299.335C658.959 299.442 658.531 299.299 659.368 299.967C659.647 303.174 657.827 307.165 656.798 310.215C652.812 322.027 641.703 349.289 633.619 357.579C628.758 362.563 614.979 366.032 608.076 368.829C590.655 375.887 573.418 383.125 555.824 389.782C538.128 396.477 519.806 402.479 502.832 410.869L504.354 405.671C507.127 403.804 510.292 402.35 513.184 400.639C510.083 400.849 507.158 401.227 504.114 401.858L503.58 402.31C502.355 402.144 502.619 402.193 501.856 401.404C502.166 400.126 502.497 398.867 502.863 397.604C499.499 398.968 496.459 403.661 492.571 403.247C492.605 403.101 492.621 402.949 492.675 402.809C495.775 394.74 641.282 308.831 658.17 299.335Z"/>
	<path fill="#FEFEFE" transform="scale(0.791992 0.791992)" d="M962.701 274.379C962.984 274.744 963.059 274.793 963.235 275.296C966.086 283.44 958.61 307.612 954.548 315.615C930.988 362.03 860.044 379.41 814.367 394.238C816.47 390.416 818.214 386.496 819.467 382.318C826.418 379.875 841.622 374.374 847.17 370.369C843.754 371.139 840.619 372.37 837.375 373.666C831.709 375.905 826.092 377.97 820.195 379.528L821.814 371.65C826.197 369.159 831.105 367.992 835.377 365.416C835.546 365.314 835.711 365.207 835.878 365.103L835.539 365.436L836.13 364.44L835.668 365.347L835.788 364.535C830.978 366.155 826.368 368.327 821.545 369.914C820.694 369.275 819.707 368.411 818.741 367.978C816.088 366.787 809.073 369.836 806.23 370.774C812.556 364.5 835.023 355.231 844.285 350.614C873.608 336 942.581 299.295 962.701 274.379Z"/>
	<path fill="#FEFEFE" transform="scale(0.791992 0.791992)" d="M750.398 579.98C759.083 580.499 767.992 582.496 776.587 583.933C800.921 588.001 834.287 593.849 857.236 602.542C855.252 607.352 851.627 611.815 848.691 616.113C844.066 622.882 839.418 629.587 835.523 636.816L812.885 633.426Q792.901 631.075 772.798 630.185Q752.696 629.295 732.582 629.872C723.884 620.489 711.464 615.189 702.106 606.474L703.836 599.232C719.986 594.041 734.724 586.214 750.398 579.98Z"/>
	<path fill="#FEFEFE" transform="scale(0.791992 0.791992)" d="M963.778 183.834L964.253 184.309C965.542 188.301 965.329 193.167 965.287 197.324C965.146 211.49 963.984 225.064 958.954 238.459C947.075 270.094 898.306 306.261 869.876 323.144C853.091 333.112 835.255 341.683 817.471 349.724C817.898 347.755 818.39 345.357 819.563 343.694C823.699 337.828 839.222 327.246 845.632 322.408C839.119 324.705 832.543 330.427 826.801 334.375C825.195 335.469 823.397 338.12 821.625 338.457C821.64 336.192 822.388 335.174 823.86 333.558C824.627 332.716 824.969 332.533 825.241 331.41C824.476 331.437 823.772 331.506 823.011 331.624L822.202 331.758L821.876 331.031C825.756 323.791 839.282 316.648 845.312 310.052C841.14 310.62 828.463 321.607 823.676 324.503L823.003 324.906C822.238 322.262 821.58 319.929 820.113 317.556C833.264 305.572 847.87 295.067 861.795 284.014Q895.601 257.501 926.33 227.475C935.006 218.979 943.782 210.381 951.49 200.978C955.961 195.525 959.823 189.662 963.778 183.834Z"/>
	<path fill="#FEFEFE" transform="scale(0.791992 0.791992)" d="M716.817 673.719C724.556 673.145 732.483 673.379 740.249 673.389Q753.098 673.393 765.932 673.997Q778.767 674.601 791.559 675.805Q804.352 677.008 817.074 678.808Q829.796 680.608 842.42 683C850.131 684.419 858.457 685.41 865.906 687.834C866.284 688.279 866.667 688.72 867.019 689.187C872.918 697.008 877.179 706.714 882.161 715.191C884.605 719.347 888.061 723.637 890.103 727.901C890.605 728.951 890.633 729.32 890.461 730.419C888.106 731.153 885.312 730.6 882.878 730.401C843.576 726.733 803.913 726.623 764.594 723.205C759.716 722.781 753.992 722.141 749.659 719.689C739.974 714.209 716.038 684.103 707.617 674.061C710.682 674.016 713.754 673.845 716.817 673.719Z"/>
	<path fill="#29233B" transform="scale(0.791992 0.791992)" d="M820.026 704.47L819.688 703.773C814.122 702.561 804.361 703.197 800.754 698.111C799.674 696.588 799.589 695.306 799.825 693.554C804.288 691.35 836.607 694.409 842.08 696.115C843.052 696.418 843.686 696.925 844.404 697.642C844.84 699.087 844.834 700.131 844.15 701.517C843.476 702.882 842.616 703.739 841.112 704.16C837.482 705.175 833.97 701.914 830.581 704.837C829.625 707.432 829.98 710.45 830.021 713.187C830.154 713.932 830.058 714.146 829.833 714.846C828.665 715.463 828.137 715.75 826.754 715.354C823.516 714.429 821.191 707.39 820.026 704.47Z"/>
	<path fill="#FEFEFE" transform="scale(0.791992 0.791992)" d="M803.824 695.881L816.97 696.467C820.594 696.654 837.804 697.018 840.209 698.844C840.622 699.157 840.902 699.613 841.249 699.998C837.696 700.136 833.897 699.335 830.307 699.17Q818.917 698.648 807.539 699.391C805.997 698.836 804.868 697.116 803.824 695.881Z"/>
	<path fill="#FEFEFE" transform="scale(0.791992 0.791992)" d="M954.385 93.5744C963.211 132.162 959.19 151.225 938.323 184.463C913.648 223.767 866.832 274.056 827.965 299.612C825.069 301.515 817.662 307.068 814.732 307.871C814.427 307.954 814.101 307.924 813.785 307.951C813.206 306.515 813.363 305.518 813.981 304.095C815.13 301.446 817.047 299.297 818.273 296.698C816.975 297.127 816.626 297.763 815.736 298.776L815.049 298.557C814.688 297.407 814.831 296.308 815.389 295.232C816.127 293.81 817.572 293.531 818.987 293.083Q820.435 290.271 821.837 287.437C819.583 289.657 817.422 291.83 814.795 293.616C814.811 287.484 816.779 281.737 817.31 275.685C816.005 278.559 814.673 281.421 813.497 284.351C812.778 281.741 812.028 279.334 810.889 276.868C857.158 229.079 901.747 179.299 937.127 122.732C943.125 113.143 949.131 103.598 954.385 93.5744Z"/>
	<path fill="#FEFEFE" transform="scale(0.791992 0.791992)" d="M677.437 212.013C679.835 217.028 671.073 247.163 668.742 253.78C665.42 263.21 661.27 274.676 654.511 282.111C649.823 287.269 642.917 291.776 637.413 296.075C624.012 306.542 609.888 316.113 595.83 325.67Q564.954 346.46 533.739 366.737L510.32 381.579C506.481 384.001 502.92 386.812 498.81 388.781C501.519 381.398 508.349 376.294 513.958 371.052C512.163 371.731 510.74 372.658 509.157 373.732L501.757 380.512C504.109 372.235 509.177 367.492 513.822 360.546C510.532 362.997 507.939 366.532 505.302 369.652C506.354 366.245 509.835 358.093 509.056 354.909L507.564 357.493L508.033 348.293C517.439 338.146 529.454 329.518 540.144 320.701Q574.112 292.51 608.999 265.463L654.984 229.138C662.387 223.36 669.708 217.345 677.437 212.013Z"/>
	<path fill="#FEFEFE" transform="scale(0.791992 0.791992)" d="M683.762 127.397C685.074 129.396 683.946 134.146 683.602 136.483C680.787 155.591 677.778 177.63 668.014 194.512C658.129 211.605 638.535 228.397 624.138 241.765Q593.647 269.865 561.81 296.43Q529.972 322.994 496.865 347.958C497.256 347.057 497.67 346.17 498.079 345.277C501.553 337.707 508.383 332.223 511.623 324.308C509.081 326.264 506.848 330.004 504.906 332.584C503.286 334.579 501.849 336.721 500.372 338.824C503.664 323.991 511.498 316.49 517.399 302.781C512.441 308.876 508.431 316.186 504.213 322.834C506.156 314.63 507.416 308.207 506.406 299.767C523.587 281.587 541.964 264.338 559.813 246.812C584.47 222.6 608.835 198.263 633.977 174.546C650.511 158.949 666.045 141.599 683.762 127.397Z"/>
	<path fill="#FEFEFE" transform="scale(0.791992 0.791992)" d="M400.833 579.716C408.036 579.08 415.505 579.344 422.745 579.382C435.647 579.448 448.476 579.675 461.361 580.349C461.603 582.159 461.924 583.96 462.22 585.761C467.965 589.329 475.018 591.812 481.222 594.567C504.081 604.716 527.595 613.258 550.919 622.276C580.092 633.556 608.493 646.548 638.395 655.85C646.097 658.245 653.911 660.784 661.83 662.364C658.716 665.851 656.402 668.781 654.766 673.214C641.353 672.057 627.935 669.828 614.597 668.022C566.479 661.506 500.368 651.642 453.168 661.014Q456.029 659.426 458.856 657.779C465.906 653.627 473.432 647.464 475.4 639.119C476.533 634.313 475.571 629.849 473.055 625.688C470.072 621.976 465.736 619.232 461.634 616.908C434.038 601.279 378.495 590.187 346.528 592.544C330.876 593.699 310.389 598.938 296.277 605.789C277.436 614.934 260.13 631.035 244.955 645.253C240.797 649.149 222.286 670.196 219.279 671.034C219.246 668.549 221.169 666.502 222.736 664.725C236.438 649.195 251.752 635.342 267.94 622.474C275.606 616.38 283.075 609.368 291.437 604.266C296.969 600.891 303.109 598.35 309.117 595.942C338.634 584.114 369.366 581.604 400.833 579.716Z"/>
	<path fill="#FEFEFE" transform="scale(0.791992 0.791992)" d="M466.959 583.042C469.302 565.32 471.151 548.465 459.566 533.314C450.358 521.273 430.44 509.097 416.7 502.251C402.81 495.331 378.069 488.407 369.749 474.833C366.014 468.741 366.334 461.734 367.201 454.937C370.655 427.839 384.725 401.971 400.384 379.97C417.435 356.011 438.455 334.366 459.055 313.447C467.396 304.977 476.069 296.684 484.065 287.893C503.835 266.155 524.092 244.856 543.699 222.984Q588.961 172.331 631.845 119.649C651.53 95.5361 670.868 71.8198 688.664 46.2253C688.096 62.1329 684.78 85.7107 678.054 99.9872C671.061 114.831 659.366 128.447 649.192 141.224Q627.843 168.126 604.891 193.674C580.502 220.284 554.363 245.552 528.289 270.482C517.676 280.63 507.467 291.255 496.613 301.136C495.889 301.795 495.322 302.26 494.34 302.367L493.981 302.737L493.566 302.402C494.982 297.578 497.419 289.818 497.865 285.043C497.987 283.74 497.933 282.205 497.094 281.142C495.584 282.05 493.347 283.025 492.451 284.575C492.46 284.847 492.503 285.735 492.443 285.973C492.363 286.293 492.184 286.579 492.054 286.883C492.149 306.361 473.589 328.14 460.706 341.637C458.63 343.812 456.7 346.47 454.503 348.459C453.65 349.232 453.549 349.471 452.433 349.421C451.846 348.851 451.882 348.18 451.907 347.365C451.938 346.339 452.474 345.045 453.007 344.191C454.411 341.94 456.712 339.753 458.434 337.712C463.376 331.855 468.349 325.742 471.724 318.824C467.246 323.94 455.81 340.544 451.191 342.832L450.208 342.563C450.112 341.46 450.08 341.167 450.658 340.173C453.081 336.012 456.843 332.13 459.942 328.421C466.568 320.493 473.543 312.572 479.567 304.179C473.265 307.177 466.793 314.423 461.785 319.316C440.46 340.154 423.763 361.223 410.342 387.969C407.308 394.015 404.059 400.25 401.764 406.619C400.097 411.243 400.424 416.112 399.371 420.856C397.665 428.543 393.11 436.285 389.407 443.189C388.736 444.439 387.539 445.894 388.002 447.251C391.636 448.041 399.638 441.579 402.118 446.495C402.908 448.061 402.562 450.348 402.107 451.953C400.906 456.188 397.904 460.286 397.591 464.682C397.047 472.317 415.288 480.941 421.509 484.128C446.91 497.143 489.046 519.624 498.445 548.495C502.083 559.67 503.109 583.108 497.631 593.611C497.132 594.566 497.107 594.478 496.292 594.986C488.057 593.706 475.598 586.034 466.959 583.042Z"/>
	<path fill="#252133" transform="scale(0.791992 0.791992)" d="M513.841 263.912C510.41 272.583 499.98 279.592 498.037 288.022C500.165 287.079 503.273 281.3 504.643 279.215C503.627 286.127 497.133 291.32 495.132 298.239C498.462 294.694 501.741 291.074 505.228 287.684C502.036 292.355 496.505 297.302 494.34 302.367L493.981 302.737L493.566 302.402C494.982 297.578 497.419 289.818 497.865 285.043C497.987 283.74 497.933 282.205 497.094 281.142C495.584 282.05 493.347 283.025 492.451 284.575C492.46 284.847 492.503 285.735 492.443 285.973C492.363 286.293 492.184 286.579 492.054 286.883C491.494 285.773 491.358 285.014 491.281 283.777C493.511 281.646 496.554 280.624 498.939 278.625C504.211 274.205 509.013 268.825 513.841 263.912Z"/>
	<path fill="#FEFEFE" transform="scale(0.791992 0.791992)" d="M420.59 747.634C428.677 746.899 436.513 748.949 443.443 753.127C461.528 764.03 470.567 787.486 475.431 806.973C480.834 828.615 480.803 856.035 475.004 877.705Q474.001 881.426 472.734 885.066Q471.467 888.705 469.943 892.245Q468.418 895.784 466.643 899.205Q464.869 902.626 462.854 905.911C455.332 918.379 444.738 930.547 430.051 934.2C421.034 935.513 412.47 933.564 404.961 928.423C386.17 915.56 377.816 889.145 373.831 867.773C367.822 835.553 371.724 795.856 390.696 768.413C398.129 757.661 407.548 750.048 420.59 747.634Z"/>
	<path fill="#252133" transform="scale(0.791992 0.791992)" d="M421.667 755.578C428.013 754.98 433.974 755.702 439.721 758.556C454.857 766.073 464.92 785.103 470.097 800.412C480.147 830.138 478.782 868.608 464.679 896.758C457.93 910.23 447.9 922.516 433.233 927.352C425.583 928.192 418.992 927.393 412.37 923.331C395.61 913.048 386.568 890.492 382.29 872.242C375.265 842.278 377.244 803.927 393.99 777.333C401.003 766.196 408.606 758.561 421.667 755.578Z"/>
	<path fill="#FEFEFE" transform="scale(0.791992 0.791992)" d="M444.456 769.647C460.068 780.444 467.068 800.153 470.316 818.202C475.13 844.95 472.204 878.7 456.291 901.482C453.058 906.111 449.201 910.804 444.827 914.407C445.168 913.16 445.471 911.559 446.072 910.422C447.18 908.326 455.183 901.935 458.153 897.16C473.331 872.762 474.313 836.4 467.548 809.085C464.219 795.64 457.034 778.619 444.63 771.228C444.471 771.133 444.31 771.042 444.149 770.948L444.456 769.647Z"/>
	<path fill="#FEFEFE" transform="scale(0.791992 0.791992)" d="M435.969 921.621C432.965 922.754 429.965 923.507 426.743 923.637C419.217 923.939 412.827 920.591 407.555 915.487C388.364 896.911 381.645 866.396 381.349 840.515C381.076 816.6 386.751 787.094 404.178 769.526C410.057 763.599 417.229 759.993 425.756 760.087C431.569 760.151 438.808 761.723 442.952 765.979L442.229 766.089C439.986 764.975 437.73 764.023 435.401 763.112C425.445 762.941 417.464 766.582 410.363 773.471C394.826 788.546 389.008 816.735 388.892 837.53C388.755 862.021 394.529 893.698 412.438 911.51C418 917.042 425.4 921.515 433.502 921.338C434.357 921.32 435.208 921.233 436.056 921.133L435.969 921.621Z"/>
	<path fill="#29233B" transform="scale(0.791992 0.791992)" d="M436.056 921.133C435.208 921.233 434.357 921.32 433.502 921.338C425.4 921.515 418 917.042 412.438 911.51C394.529 893.698 388.755 862.021 388.892 837.53C389.008 816.735 394.826 788.546 410.363 773.471C417.464 766.582 425.445 762.941 435.401 763.112C437.73 764.023 439.986 764.975 442.229 766.089C442.161 766.642 442.032 767.265 442.046 767.82C443.396 768.369 443.852 768.274 444.456 769.647L444.149 770.948C444.31 771.042 444.471 771.133 444.63 771.228C457.034 778.619 464.219 795.64 467.548 809.085C474.313 836.4 473.331 872.762 458.153 897.16C455.183 901.935 447.18 908.326 446.072 910.422C445.471 911.559 445.168 913.16 444.827 914.407C443.817 918.103 440.482 919.31 437.767 921.685L435.969 921.621L436.056 921.133Z"/>
	<path fill="#FEFEFE" transform="scale(0.791992 0.791992)" d="M403.852 871.672C404.384 871.848 404.778 872.106 405.254 872.397C406.383 875.037 407.066 877.972 406.598 880.836C405.436 879.89 404.469 878.831 403.853 877.456C402.913 875.358 403.021 873.76 403.852 871.672Z"/>
	<path fill="#EC173B" transform="scale(0.791992 0.791992)" d="M460.73 832.894C463.836 832.343 466.603 830.508 469.57 829.448C467.086 832.002 463.455 836.047 460.075 837.261C459.438 836.903 459.807 837.078 458.81 836.758C457.722 836.408 457.939 836.445 457.365 835.569C457.891 834.06 459.364 833.635 460.73 832.894Z"/>
	<path fill="#252133" transform="scale(0.791992 0.791992)" d="M435.401 763.112C437.73 764.023 439.986 764.975 442.229 766.089C442.161 766.642 442.032 767.265 442.046 767.82C442.135 769.072 442.296 769.25 441.699 770.415C440.633 770.644 439.574 770.824 438.496 770.983C438.168 771.555 437.909 772.032 437.691 772.659C437.389 770.373 437.344 767.836 436.048 765.877L435.401 763.112Z"/>
	<path fill="#EC173B" transform="scale(0.791992 0.791992)" d="M454.941 832.36C455.714 830.885 456.854 829.467 458.269 828.542C459.662 827.631 461.346 827.788 462.876 828.18L463.08 828.91C462.128 830.197 461.429 831.456 460.73 832.894C459.364 833.635 457.891 834.06 457.365 835.569C457.939 836.445 457.722 836.408 458.81 836.758C459.807 837.078 459.438 836.903 460.075 837.261C459.314 837.914 458.557 838.595 457.689 839.105C456.645 839.718 456.583 839.757 455.462 839.479C454.543 837.412 454.914 834.601 454.941 832.36Z"/>
	<path fill="#FEFEFE" transform="scale(0.791992 0.791992)" d="M396.588 814.733C398.788 808.669 400.038 802.386 402.613 796.408C404.551 791.91 413.456 776.459 417.655 774.77C417.734 775.858 416.345 777.36 415.724 778.296L414.293 779.505C413.658 780.096 413.09 780.652 412.533 781.318C407.313 787.568 400.97 800.341 399.991 808.439C399.731 810.588 400.326 813.272 400.582 815.434C399.233 815.798 397.873 815.142 396.588 814.733Z"/>
	<path fill="#EC173B" transform="scale(0.791992 0.791992)" d="M460.719 793.839C461.061 794.849 460.999 795.731 460.832 796.769C459.665 804 457.184 811.326 455.301 818.421C454.617 820.996 454.404 823.736 453.528 826.236L452.76 826.259C452.068 825.229 451.493 824.232 450.939 823.127C451.162 818.685 458.038 796.861 460.719 793.839Z"/>
	<path fill="#EC173B" transform="scale(0.791992 0.791992)" d="M429.217 842.908C430.165 843.038 429.854 842.88 430.6 843.405C431.326 843.916 431.154 844.152 431.29 844.976C429.059 849.061 412.519 858.547 407.53 861.609L406.103 862.107L405.596 861.616C407.945 857.018 418.255 848.6 422.798 845.82C424.821 844.583 427.01 843.753 429.217 842.908Z"/>
	<path fill="#EC173B" transform="scale(0.791992 0.791992)" d="M454.474 849.78C455.282 850.76 455.667 851.806 456.136 852.982C458.551 859.021 465.607 867.353 465.48 873.737C465.303 873.7 465.094 873.736 464.951 873.626C464.584 873.347 459.079 862.044 457.167 859.46C457.98 862.138 458.966 864.636 460.088 867.197Q461.555 870.501 462.937 873.842C463.933 876.312 464.859 879.738 463.768 882.299C463.426 882.075 453.779 860.078 452.303 857.501C452.863 854.898 453.72 852.334 454.474 849.78Z"/>
	<path fill="#EC173B" transform="scale(0.791992 0.791992)" d="M436.048 765.877C437.344 767.836 437.389 770.373 437.691 772.659C439.906 781.92 439.707 791.908 441.305 801.338C442.474 808.23 445.288 814.516 446.714 821.307L446.85 821.97Q445.656 820.75 444.547 819.453C436.144 809.483 435.034 779.05 436.048 765.877Z"/>
	<path fill="#EC173B" transform="scale(0.791992 0.791992)" d="M415.724 778.296C418.529 785.122 421.281 792.035 424.455 798.697C427.554 805.2 431.206 811.641 433.913 818.3C434.418 819.543 434.857 820.485 434.557 821.798C432.13 820.89 429.892 817.272 428.377 815.154C430.204 819.841 431.42 822.26 435.999 824.748L436.256 825.316C435.143 825.959 435.111 825.916 433.828 825.73C432.314 824.664 431.423 823.464 430.533 821.84C428.995 819.036 428.421 816.046 427.249 813.119C423.008 802.518 416.128 791.441 414.362 780.07C414.332 779.883 414.316 779.694 414.293 779.505L415.724 778.296Z"/>
	<path fill="#EC173B" transform="scale(0.791992 0.791992)" d="M396.071 816.363C400.51 816.806 425.722 829.146 430.708 832.049C431.132 833.386 430.483 834.61 430.041 835.872L429.642 836.256C427.638 836.507 425.093 835.145 423.277 834.304C417.03 831.412 402.359 823.992 397.771 819.403C396.911 818.543 396.479 817.487 396.071 816.363Z"/>
	<path fill="#EC173B" transform="scale(0.791992 0.791992)" d="M437.804 916.135C438.304 911.189 438.56 906.38 438.53 901.409C438.465 890.559 435.664 866.213 442.331 857.736L443.174 857.681C444.605 860.144 443.366 863.54 442.803 866.205C440.163 878.703 443.289 897.63 441.797 911.528C441.525 913.409 441.416 915.023 440.307 916.609C439.917 916.828 439.465 917.184 439.017 917.223C435.088 916.443 430.077 916.495 426.455 914.816C424.418 913.872 420.398 910.86 419.729 908.8C421.39 909.107 422.339 909.82 423.685 910.809C427.842 913.861 432.9 914.833 437.804 916.135Z"/>
	<path fill="#EC173B" transform="scale(0.791992 0.791992)" d="M434.947 854.855L435.702 855.539C436.054 856.595 436.283 856.976 435.966 858.076C434.637 862.701 431.771 867.45 429.935 871.968C425.092 883.886 420.488 895.772 416.029 907.84C405.144 897.298 400.435 883.983 397.007 869.586C399.992 868.262 402.314 866.821 404.48 864.348C404.794 864.011 405.095 863.639 405.516 863.421C406.561 862.882 407.559 862.929 408.632 863.267C408.146 865.54 401 869.219 398.875 870.611C402.008 883.475 405.546 894.416 414.9 904.207C418.801 889.346 424.62 866.167 434.947 854.855Z"/>
	<path fill="#FEFEFE" transform="scale(0.791992 0.791992)" d="M443.131 827.591C444.25 827.439 445.559 827.175 446.668 827.473C448.37 827.931 449.647 829.655 450.416 831.141C452.862 835.872 452.452 843.316 450.672 848.189C449.433 851.579 448.102 853.13 444.844 854.601C442.328 853.746 440.598 852.291 439.013 850.159C436.386 846.625 435.415 841.56 436.258 837.261C437.153 832.696 439.277 830.037 443.131 827.591Z"/>
	<path fill="#FEFEFE" transform="scale(0.791992 0.791992)" d="M220.203 698.029C246.132 694.038 272.304 691.165 298.311 687.667C315.872 685.306 333.394 682.026 351.054 680.503C337.225 701.076 329.369 731.143 322.222 755.014Q316.87 772.488 311.179 789.855C310.443 791.951 309.832 794.286 308.85 796.268C307.923 798.894 307.125 801.841 305.931 804.341Q236.779 811.337 167.488 816.782L167.648 818.519C166.736 818.234 165.801 817.68 164.93 817.271L164.676 817.099L163.69 811.621L166.144 810.651L165.594 806.151C163.649 791.277 162.968 776.63 163.106 761.643C164.368 756.745 163.715 750.8 164.531 745.704C167.319 728.279 177.114 714.671 188.16 701.46C192.938 701.36 197.627 701.08 202.387 700.657Q202.551 703.03 202.756 705.4C202.467 707.077 202.443 707.665 203.166 709.206C204.676 710.555 205.942 710.759 207.89 710.624C211.733 710.356 215.59 708.842 218.743 706.685L220.203 698.029Z"/>
	<path fill="#29233B" transform="scale(0.791992 0.791992)" d="M319.05 701.56C320.09 701.457 321.115 701.368 322.161 701.456C323.856 701.599 325.13 702.404 326.152 703.737C328.014 706.165 328.146 709.539 327.754 712.45C327.167 716.797 325.394 722.299 321.697 725.018C317.396 728.18 312.183 724.558 307.604 723.739C307.411 723.704 307.218 723.673 307.025 723.641C303.545 723.301 296.849 723.522 294.509 720.425C292.514 717.784 293.801 713.541 294.399 710.575C301.611 706.198 310.966 703.919 319.05 701.56Z"/>
	<path fill="#FEFEFE" transform="scale(0.791992 0.791992)" d="M308.572 717.292C313.497 716.756 315.465 717.225 319.581 719.875C315.923 720.49 312.092 720.951 308.38 720.906C303.973 720.41 299.677 720.046 295.4 718.814C295.592 718.771 295.784 718.726 295.977 718.685L296.944 718.489C300.797 717.67 304.652 717.517 308.572 717.292Z"/>
	<path fill="#FEFEFE" transform="scale(0.791992 0.791992)" d="M317.117 709.198C318.665 709.029 319.72 709.007 321.027 709.838C321.462 711.287 321.386 711.223 320.719 712.598C317.503 714.971 315.6 714.477 311.834 714.064C309.72 714.122 306.097 714.611 304.458 713.102C306.901 710.207 313.484 709.539 317.117 709.198Z"/>
	<path fill="#EC173B" transform="scale(0.791992 0.791992)" d="M165.594 806.151Q220.208 800.815 274.689 794.268C286.858 792.863 298.996 791.12 311.179 789.855C310.443 791.951 309.832 794.286 308.85 796.268C295.726 797.223 282.608 798.967 269.525 800.416L206.846 807.163C194.595 808.446 178.454 811.15 166.361 810.865L166.144 810.651L165.594 806.151Z"/>
	<path fill="#FEFEFE" transform="scale(0.791992 0.791992)" d="M166.361 810.865C178.454 811.15 194.595 808.446 206.846 807.163L269.525 800.416C282.608 798.967 295.726 797.223 308.85 796.268C307.923 798.894 307.125 801.841 305.931 804.341Q236.779 811.337 167.488 816.782L167.648 818.519C166.736 818.234 165.801 817.68 164.93 817.271L164.676 817.099L163.69 811.621L166.144 810.651L166.361 810.865Z"/>
	<path fill="#252133" transform="scale(0.791992 0.791992)" d="M166.144 810.651L166.361 810.865C166.661 812.844 166.873 814.872 167.488 816.782L167.648 818.519C166.736 818.234 165.801 817.68 164.93 817.271L164.676 817.099L163.69 811.621L166.144 810.651Z"/>
	<path fill="#FEFEFE" transform="scale(0.791992 0.791992)" d="M349.56 865.557L301.961 861.388Q249.947 857.587 197.877 854.644C180.891 853.672 163.661 851.897 146.654 851.816C144.724 851.806 142.843 851.842 141.06 852.651L140.986 853.354C145.145 855.628 168.573 855.857 175.115 856.322C214.889 859.148 254.744 860.892 294.498 863.989Q313.861 865.602 333.178 867.688C340.716 868.459 348.58 869.687 356.162 869.499C356.435 869.23 356.772 868.938 356.923 868.573C357.404 867.41 357.268 866.882 356.741 865.871C356.511 865.819 356.28 865.775 356.052 865.716C354.591 865.339 353.819 864.943 353.114 863.594C351.63 860.755 352.056 856.004 351.822 852.82C349.835 825.786 351.852 795.454 360.397 769.604C367.113 749.286 382.119 726.781 401.753 717.005C415.474 710.172 430.728 709.963 445.122 714.833C490.569 730.213 514.844 785.496 524.789 828.965C527.15 839.286 529.086 859.591 533.534 868.041C536.354 873.397 541.155 876.898 546.819 878.751C558.533 882.582 571.295 881.189 583.4 880.758C592.04 880.449 601.468 881.421 609.961 880.055C633.116 876.33 647.295 853.28 667.39 843.173Q669.25 842.225 671.187 841.447Q673.124 840.669 675.123 840.069Q677.122 839.468 679.167 839.049Q681.212 838.63 683.286 838.397C691.395 837.408 699.794 837.34 707.957 836.993Q730.669 836.023 753.393 835.401Q781.297 834.367 809.21 833.615C826.278 833.283 843.381 833.471 860.454 833.365C874.592 833.277 913.836 831.801 925.415 836.03C927.415 836.761 927.913 838.675 928.732 840.481C903.375 837.026 871.771 838.334 845.571 838.166Q795.497 837.593 745.446 839.201C725.736 839.67 705.483 839.537 685.895 841.784C682.254 842.202 678.65 842.881 675.177 844.069C653.225 851.579 636.129 878.212 613.536 884.568C602.291 887.731 589.559 887.728 577.949 888.437C559.835 889.544 540.746 891.116 523.185 896.058C521.644 896.492 519.734 896.895 518.877 898.373C520.002 899.713 521.005 899.76 522.663 900.118C539.626 903.785 596.272 901.408 613.589 898.058C618.265 897.153 622.545 895.7 626.621 893.21C640.182 884.925 649.688 870.792 663.245 862.248C669.191 858.501 675.351 856.421 682.286 855.431C690.356 854.279 698.601 853.932 706.735 853.435Q729.908 852.02 753.115 851.366Q806.184 849.102 859.29 848.003Q882.498 847.357 905.715 847.406C911.981 847.387 919.478 846.535 925.54 847.879C926.835 849.337 927.059 850.496 926.95 852.433C926.444 861.488 914.366 891.488 907.496 896.918C904.911 898.961 900.931 899.818 897.725 900.383C888.266 902.051 878.406 902.456 868.839 903.187C845.034 905.005 821.33 905.671 797.507 906.811C786.54 907.335 775.59 908.179 764.619 908.641Q729.149 909.836 693.669 910.674C671.781 911.213 644.908 912.267 623.397 909.934C639.11 904.935 674.739 907.511 692.795 906.977L739.063 905.202Q794.434 904.126 849.72 900.887C865.84 899.819 882.364 899.638 898.359 897.462C903.343 896.784 906.428 895.714 909.468 891.547C913.253 886.359 926.114 858.102 924.97 852.395C924.77 851.401 924.924 851.785 923.985 851.092C911.311 849.702 897.571 850.656 884.829 850.846Q841.123 851.78 797.444 853.565C767.799 854.633 738.199 855.299 708.589 857.197C697.874 857.884 685.144 857.409 674.988 861.018C652.565 868.986 641.934 895.177 618.73 901.291C605.44 904.792 544.123 906.005 528.654 904.152C526.074 903.843 523.285 903.293 521.063 901.879C517.599 899.675 514.051 895.592 512.694 891.69C509.887 883.622 510.362 873.347 509.258 864.826C507.974 854.914 505.775 844.848 503.471 835.127C496.574 806.022 484.22 779.152 465.055 756.1C458.211 747.868 451.41 740.693 442.174 735.073C432.091 728.937 421.413 726.077 409.766 728.985C394.347 732.835 382.7 744.763 374.878 758.086C368.452 769.033 363.469 781.981 360.737 794.399C356.211 814.978 356.142 844.719 359.485 865.453C360.289 870.442 361.712 875.362 363.004 880.244C327.916 874.667 291.999 872.026 256.664 868.274Q225.648 865.007 194.585 862.217C176.882 860.54 158.884 858.538 141.091 858.454C140.504 851.606 139.348 844.773 138.615 837.932Q137.3 824.75 136.751 811.513L136.461 809.092C145.073 808.706 154.254 807.764 162.754 806.347L163.69 811.621L164.676 817.099L164.93 817.271C165.801 817.68 166.736 818.234 167.648 818.519L167.488 816.782Q236.779 811.337 305.931 804.341L305.946 805.074C307.177 805.261 307.813 805.167 308.546 806.3C308.701 806.54 308.791 806.815 308.914 807.072C305.14 817.286 300.596 827.17 296.49 837.248C311.845 837.655 332.855 837.113 347.486 839.052C347.455 843.188 347.615 847.341 347.695 851.478C327.875 851.801 306.78 847.641 286.831 849.168C301.33 853.58 331.854 854.248 348.053 855.086C348.432 858.602 348.976 862.07 349.56 865.557Z"/>
	<path fill="#252133" transform="scale(0.791992 0.791992)" d="M140.383 831.87C140.015 828.369 138.594 822.058 139.75 818.733L140.849 818.952C141.913 822.523 142.372 826.418 142.751 830.119C142.034 830.89 141.518 831.128 140.647 831.669C140.553 831.727 140.471 831.803 140.383 831.87Z"/>
	<path fill="#EC173B" transform="scale(0.791992 0.791992)" d="M162.754 806.347L163.69 811.621C154.826 811.007 145.597 814.621 137.061 811.363L136.751 811.513L136.461 809.092C145.073 808.706 154.254 807.764 162.754 806.347Z"/>
	<defs>
		<linearGradient id="gradient_0" gradientUnits="userSpaceOnUse" x1="226.48528" y1="854.80872" x2="223.99458" y2="809.57001">
			<stop offset="0" stop-color="#1F162B"/>
			<stop offset="1" stop-color="#22254C"/>
		</linearGradient>
	</defs>
	<path fill="url(#gradient_0)" transform="scale(0.791992 0.791992)" d="M305.946 805.074C307.177 805.261 307.813 805.167 308.546 806.3C308.701 806.54 308.791 806.815 308.914 807.072C305.14 817.286 300.596 827.17 296.49 837.248C292.566 844.489 287.412 850.405 279.214 852.815C273.327 854.545 254.225 852.605 247.119 852.338Q209.645 851.035 172.195 849.172C164.424 848.814 156.574 848.947 148.823 848.439C147.183 848.331 144.985 848.343 143.525 847.571C141.144 843.356 141.005 836.665 140.383 831.87C140.471 831.803 140.553 831.727 140.647 831.669C141.518 831.128 142.034 830.89 142.751 830.119C142.372 826.418 141.913 822.523 140.849 818.952C146.046 820.189 158.641 817.819 164.676 817.099L164.93 817.271C165.801 817.68 166.736 818.234 167.648 818.519C169.731 825.277 171.368 832.04 174.061 838.609L174.663 840.007C183.176 839.184 191.913 839.192 200.467 838.978L245.625 838.13C261.112 837.89 276.941 836.481 292.377 836.957C296.321 832.55 303.641 811.599 305.946 805.074Z"/>
	<path fill="#FEFEFE" transform="scale(0.791992 0.791992)" d="M171.579 840.928L171.772 841.344L174.169 846.572C168.629 846.303 162.693 845.549 157.17 845.901L157.374 845.289C162.039 843.727 166.753 841.906 171.579 840.928Z"/>
	<path fill="#291334" transform="scale(0.791992 0.791992)" d="M171.459 839.469L171.579 840.928C166.753 841.906 162.039 843.727 157.374 845.289L157.17 845.901C154.639 846.392 153.215 845.874 150.99 844.654C156.985 841.783 164.808 839.628 171.459 839.469Z"/>
	<path fill="#EC173B" transform="scale(0.791992 0.791992)" d="M164.676 817.099L164.93 817.271C165.801 817.68 166.736 818.234 167.648 818.519C169.731 825.277 171.368 832.04 174.061 838.609L171.772 841.344L171.579 840.928L171.459 839.469C164.808 839.628 156.985 841.783 150.99 844.654C149.218 845.086 148.511 845.457 146.746 844.89C143.479 841.496 143.728 834.665 142.751 830.119C142.372 826.418 141.913 822.523 140.849 818.952C146.046 820.189 158.641 817.819 164.676 817.099Z"/>
	<path fill="#29233B" transform="scale(0.791992 0.791992)" d="M164.93 817.271C165.801 817.68 166.736 818.234 167.648 818.519C169.731 825.277 171.368 832.04 174.061 838.609L171.772 841.344L171.579 840.928L171.459 839.469C168.613 832.42 166.557 824.68 164.93 817.271Z"/>
	<path fill="#FEFEFE" transform="scale(0.791992 0.791992)" d="M174.663 840.007C183.176 839.184 191.913 839.192 200.467 838.978L245.625 838.13C261.112 837.89 276.941 836.481 292.377 836.957C289.207 842.675 284.72 847.532 278.32 849.568C272.666 851.366 259.856 849.787 253.471 849.578C228.063 848.749 202.558 846.817 177.161 846.435L174.663 840.007Z"/>
	<path fill="#EC173B" transform="scale(0.791992 0.791992)" d="M167.488 816.782Q236.779 811.337 305.931 804.341L305.946 805.074C303.641 811.599 296.321 832.55 292.377 836.957C276.941 836.481 261.112 837.89 245.625 838.13L200.467 838.978C191.913 839.192 183.176 839.184 174.663 840.007L174.061 838.609C171.368 832.04 169.731 825.277 167.648 818.519L167.488 816.782Z"/>
	<path fill="#FEFEFE" transform="scale(0.791992 0.791992)" d="M354.423 680.19C374.644 676.525 395.123 673.689 415.415 670.377C427.111 668.468 438.722 665.949 450.435 664.195Q462.863 662.371 475.4 661.591Q487.937 660.81 500.495 661.078C533.051 661.844 565.611 665.482 597.873 669.766C617.612 672.387 637.842 676.093 657.721 676.942C663.162 677.175 668.711 676.548 674.148 676.246Q688.48 675.504 702.802 674.6C714.866 687.384 731.922 711.724 744.976 720.958C748.611 723.529 752.522 725.124 756.892 725.943C768.774 728.172 784.837 728.145 797.184 728.795Q833.378 730.508 869.535 732.861C877.403 733.357 886.365 733.096 893.987 734.915C905.095 737.565 914.725 743.703 920.535 753.603C932.596 774.153 931.104 808.47 925.23 830.947C905.819 828.742 885.682 829.289 866.155 829.294C829.468 829.304 792.907 830.289 756.24 831.287Q732.738 831.782 709.253 832.824C697.563 833.305 684.391 832.722 673.202 836.391C647.972 844.663 632.403 874.313 606.503 876.59C599.636 877.193 592.616 876.837 585.719 877.029C571.756 877.417 553.094 880.587 541.194 871.351C537.718 868.653 536.126 864.524 534.911 860.416C531.93 850.343 530.876 839.387 528.605 829.089C522.061 799.413 510.923 770.521 492.607 746.031C485.401 736.396 476.684 729.018 467.503 721.375C488.352 716.935 508.987 711.958 529.922 707.841C532.18 710.432 534.436 713.04 536.796 715.539C542.787 721.882 548.144 726.3 557.196 726.487C569.14 726.733 581.172 726.25 593.118 726.088Q632.499 725.801 671.862 724.586Q687.721 724.229 703.583 724.139C709.524 724.143 715.947 724.787 721.808 724.076C723.368 723.886 724.312 723.314 725.416 722.259C725.838 720.846 725.835 720.085 725.328 718.675C722.858 711.802 700.013 685.796 693.404 682.463C686.067 678.763 674.763 680.386 666.71 681.071C651.626 682.354 636.721 684.945 621.811 687.486Q591.131 692.662 560.561 698.458C536.482 702.835 512.299 706.968 488.448 712.469C480.151 714.383 471.583 716.027 463.501 718.72C449.121 711.5 435.644 705.934 419.199 707.87C402.006 709.893 387.663 719.467 377.092 732.89C381.412 719.623 388.908 708.772 399.3 699.45C407.155 692.403 416.388 687.815 426.402 684.658C451.458 676.759 494.072 675.803 520.562 677.361L520.293 676.313C520.676 674.954 520.651 675.015 521.85 674.263C494.521 672.133 447.901 672.964 422.24 681.923Q418.738 683.167 415.364 684.724Q411.989 686.281 408.77 688.137Q405.551 689.994 402.513 692.134Q399.475 694.275 396.644 696.682C387.043 704.878 379.347 715.194 374.966 727.073C373.251 731.722 372.079 736.733 369.957 741.208C367.827 745.699 365.129 749.951 362.852 754.375C357.865 764.064 354.762 774.235 352.801 784.919C340.297 786.172 327.683 788.43 315.172 789.197C322.2 768.324 327.986 746.975 334.791 726.013C337.628 717.277 340.29 708.346 343.982 699.928C346.978 693.098 350.746 686.666 354.423 680.19Z"/>
	<path fill="#252133" transform="scale(0.791992 0.791992)" d="M521.85 674.263C524.551 674.301 527.014 674.194 529.537 675.3L530.054 676.088C529.265 677.035 528.024 677.42 526.82 677.535C525.649 677.648 524.424 677.514 523.251 677.461L520.562 677.361L520.293 676.313C520.676 674.954 520.651 675.015 521.85 674.263Z"/>
	<path fill="#29233B" transform="scale(0.791992 0.791992)" d="M694.124 787.546C685.615 789.811 676.596 790.844 667.942 792.542C657.343 794.621 646.775 797.5 636.428 800.579C630.441 802.36 624.043 804.153 618.653 807.369C613.395 810.506 609.199 814.376 606.681 820.069C600.752 833.471 597.458 848.698 588.246 860.442C583.857 866.036 578.678 869.31 571.549 870.09C567.992 870.478 561.3 871.888 558.447 869.592C557.918 868.526 557.72 867.804 557.938 866.605C558.915 861.236 563.382 855.303 565.797 850.369C573.965 833.68 585.074 804.591 600.124 793.917C603.645 791.42 607.468 790.014 611.648 789.108C618.316 787.663 625.317 787.059 632.093 786.293C650.055 784.263 668.039 783.227 686.076 782.205C693.499 781.784 702.346 780.256 709.593 781.642C710.227 781.763 710.25 782.098 710.6 782.607L710.306 783.492C706.707 785.829 699.386 785.265 695.127 785.479C675.543 786.163 621.403 788.609 605.676 794.921C602.645 796.138 599.987 798.514 597.779 800.89C593.114 805.912 589.376 812.201 585.843 818.06C590.814 812.166 595.245 804.753 601.339 800.004C611.371 792.184 649.924 790.179 664.164 788.976C673.965 788.148 684.314 787.15 694.124 787.546Z"/>
	<path fill="#29233B" transform="scale(0.791992 0.791992)" d="M813.578 750.731C823.911 750.51 889.776 750.984 894.405 755.644C899.947 761.224 904.626 785.541 904.815 793.472C904.864 795.528 904.926 797.951 903.404 799.519C897.63 801.432 879.361 799.9 872.408 799.731C853.596 799.246 834.686 799.148 815.868 799.141C805.752 799.138 795.455 799.57 785.358 799.078C783.826 799.003 782.453 798.998 781.187 798.098C780.996 797.434 780.826 796.822 780.765 796.131C780.329 791.175 787.507 757.531 790.542 754.012C794.165 749.813 808.398 750.829 813.578 750.731Z"/>
	<path fill="#FEFEFE" transform="scale(0.791992 0.791992)" d="M797.851 760.688C806.345 760.151 815.028 760.494 823.549 760.494C841.465 760.493 860.068 760.427 877.848 762.68C881.825 767.566 884.792 773.327 888.023 778.714C891.671 784.796 895.502 790.775 899.212 796.82C894.191 797.008 889.1 796.706 884.075 796.581Q852.565 795.994 821.05 795.793C808.705 795.742 796.084 796.469 783.802 795.457C785.484 787.282 787.874 772.57 791.935 765.652C793.458 763.056 794.916 761.465 797.851 760.688Z"/>
</svg>
