<?xml version="1.0" encoding="utf-8" ?>
<svg xmlns="http://www.w3.org/2000/svg" xmlns:xlink="http://www.w3.org/1999/xlink" width="1278" height="1022">
	<path fill="#FEFEFE" transform="scale(0.998438 0.998438)" d="M0 0L1278.91 0C1280.3 2.44878 1279.99 5.15956 1280 7.90141L1280.01 807.041L1280 969.618C1280 976.707 1280.96 1018.64 1279.61 1022.62C1279.43 1023.14 1279.19 1023.51 1278.91 1024L0 1024L0 0Z"/>
	<path fill="#E8C8C5" transform="scale(0.998438 0.998438)" d="M425.427 400.714C433.37 399.744 441.12 399.144 449.138 399.402L449.639 401.269C452.342 402.353 455.044 401.861 457.824 402.533C447.202 403.121 435.945 402.239 425.427 400.714Z"/>
	<path fill="#0F2B4D" transform="scale(0.998438 0.998438)" d="M606.602 385.852C609.136 385.963 615.064 385.774 616.946 387.277C615.229 390.607 606.943 397.189 603.363 398.319C601.997 398.75 600.594 398.715 599.19 398.577C600.053 398.224 600.898 397.841 601.753 397.468C603.588 396.667 604.605 395.401 605.724 393.785C606.949 392.017 607.7 390.235 607.336 388.08L605.748 387.135C606.442 386.749 606.34 386.569 606.602 385.852Z"/>
	<path fill="#4E627A" transform="scale(0.998438 0.998438)" d="M774.298 641.319C787.523 641.137 801.868 640.004 814.858 643Q794.926 643.372 775 643.998C775.784 643.32 776.722 642.86 777.619 642.346L774.298 641.319Z"/>
	<path fill="#CA7B7A" transform="scale(0.998438 0.998438)" d="M449.138 399.402C461.545 399.271 474.005 398.53 486.406 398.91C481.007 399.631 475.419 399.285 470.1 400.202L469.564 400.92C472.468 401.554 475.432 402.022 478.356 402.567C471.55 402.92 464.642 402.619 457.824 402.533C455.044 401.861 452.342 402.353 449.639 401.269L449.138 399.402Z"/>
	<defs>
		<linearGradient id="gradient_0" gradientUnits="userSpaceOnUse" x1="415.62076" y1="428.88086" x2="403.75424" y2="426.95309">
			<stop offset="0" stop-color="#BA5654"/>
			<stop offset="1" stop-color="#BC7371"/>
		</linearGradient>
	</defs>
	<path fill="url(#gradient_0)" transform="scale(0.998438 0.998438)" d="M422.247 425.879C426.941 425.855 431.647 425.761 436.339 425.897C436.092 426.065 435.854 426.245 435.599 426.4C431.979 428.606 421.175 427.297 416.787 427.286L416.542 428.208L417.242 429.333C423.037 430.489 430.029 428.184 436.035 430.68C422.512 430.95 408.823 430.714 395.306 430.224C398.023 429.166 400.65 429.221 403.509 428.978C403.578 427.843 403.475 427.804 402.831 426.849C408.863 425.272 415.955 427.645 422.247 425.879Z"/>
	<path fill="#E8C8C5" transform="scale(0.998438 0.998438)" d="M725.316 516.881L727.102 516.935C728.416 519.073 727.984 521.855 728.593 524.265L728.544 523.103L729.034 523.7L729.766 523.011C730.507 527.577 730.82 532.011 730.51 536.638C730.126 542.361 726.327 561.301 722.381 565.297C720.352 567.351 722.726 564.77 720.926 566.341C720.642 566.589 720.27 567.177 720.048 567.508C721.88 561.407 724.678 555.823 726.1 549.502C727.986 541.116 730.006 524.33 725.316 516.881Z"/>
	<path fill="#CA7B7A" transform="scale(0.998438 0.998438)" d="M443.443 448.346C452.138 448.188 460.937 447.869 469.626 448.321C465.955 448.676 461.212 448.341 457.813 449.668L457.467 450.562C458.235 451.697 458.752 452.092 459.978 452.695Q448.188 452.955 436.427 452.079C431.791 449.659 425.226 452.195 420.11 451.013L419.812 450.224C420.274 449.963 439.794 448.876 443.443 448.346Z"/>
	<path fill="#4E627A" transform="scale(0.998438 0.998438)" d="M985.232 378.633C979.277 377.877 973.21 377.215 967.198 377.366C962.781 377.477 947.25 380.299 944.417 379.172C954.882 371.751 984.484 374.965 997.073 376.872C993.275 377.316 989.52 377.665 985.699 377.821L985.232 378.633Z"/>
	<path fill="#E8C8C5" transform="scale(0.998438 0.998438)" d="M567.8 456.396C583.417 456.386 598.706 456.682 614.161 459.095C616.455 459.454 623.254 461.194 625.137 459.531C625.357 459.336 625.53 459.093 625.727 458.874Q627.048 459.97 628.389 461.042L627.589 461.545C618.209 462.316 608.614 460.596 599.267 459.953C591.621 459.427 583.832 459.643 576.245 458.546C573.368 458.13 570.564 457.277 567.8 456.396Z"/>
	<defs>
		<linearGradient id="gradient_1" gradientUnits="userSpaceOnUse" x1="419.37958" y1="449.99884" x2="388.75143" y2="450.27084">
			<stop offset="0" stop-color="#CFAEAD"/>
			<stop offset="1" stop-color="#EDDFE0"/>
		</linearGradient>
	</defs>
	<path fill="url(#gradient_1)" transform="scale(0.998438 0.998438)" d="M379.531 449.914C400.8 448.177 422.118 448.185 443.443 448.346C439.794 448.876 420.274 449.963 419.812 450.224L420.11 451.013C425.226 452.195 431.791 449.659 436.427 452.079C421.938 452.877 393.08 452.953 379.531 449.914Z"/>
	<path fill="#4E627A" transform="scale(0.998438 0.998438)" d="M791.065 443.563C821.746 442.061 852.944 443.044 883.597 444.843C861.808 445.997 840.192 445.811 818.393 445.29C809.465 445.076 800.408 445.431 791.541 444.303L791.065 443.563Z"/>
	<path fill="#CACFD0" transform="scale(0.998438 0.998438)" d="M767.9 377.414C774.097 377.761 779.139 386.986 784.134 383.7C787.695 381.357 816.853 381.097 821.773 382.037C824.155 383.324 826.985 383.425 829.637 383.77C813.68 385.266 797.868 384.818 781.909 385.605C781.213 386.639 781.24 387.261 781.254 388.487C776.504 390.267 769.648 389.223 764.677 388.754C769.613 387.709 775.07 387.505 780.12 386.771C776.574 383.117 771.555 381.052 767.9 377.414Z"/>
	<path fill="#CACFD0" transform="scale(0.998438 0.998438)" d="M939.737 649.507C952.049 645.816 1004.06 644.352 1018.31 645.435L1016.59 645.427C1008.44 646.618 1000.21 646.593 992.043 647.55C978.268 649.164 963.425 652.177 949.554 652.098L951.779 651.166L951.84 650.63C948.366 649.309 943.468 649.674 939.737 649.507Z"/>
	<path fill="#B41C23" transform="scale(0.998438 0.998438)" d="M605.748 387.135L607.336 388.08C607.7 390.235 606.949 392.017 605.724 393.785C604.605 395.401 603.588 396.667 601.753 397.468C600.898 397.841 600.053 398.224 599.19 398.577C593.9 397.935 588.435 397.779 583.111 397.401C584.276 393.523 585.871 390.962 588.289 387.774C594.139 388.029 599.969 388.22 605.748 387.135Z"/>
	<path fill="#CACFD0" transform="scale(0.998438 0.998438)" d="M874.228 526.458C873.331 529.106 872.37 531.719 871.952 534.494C883.063 534.394 944.285 532.4 949.168 535.829L949.331 536.861C948.549 536.789 947.679 536.584 946.922 536.825C946.509 537.924 946.149 539.018 945.819 540.145C944.625 541.08 943.714 541.996 942.12 542.047C943.372 540.292 944.656 538.638 946.085 537.024C938.655 536.196 930.46 536.856 922.961 536.873C905.734 536.913 888.192 537.19 870.994 536.296L870.732 535.312L870.038 535.588L869.9 536.033L869.436 534.793C869.984 531.249 871.755 528.92 874.228 526.458Z"/>
	<path fill="#CACFD0" transform="scale(0.998438 0.998438)" d="M882.924 491.226C882.847 490.615 882.447 490.451 882.011 490.041L882.832 489.963L881.734 489.849C886.683 488.155 893.195 487.698 898.396 487.454C905.09 487.141 978.144 487.054 980.344 487.756L980.495 489.037L979.294 490.052C978.913 489.801 978.581 489.453 978.151 489.3C976.14 488.584 960.015 489.778 956.744 489.844C936.214 490.262 915.652 489.671 895.134 490.185C891.02 490.288 886.993 490.612 882.924 491.226Z"/>
	<defs>
		<linearGradient id="gradient_2" gradientUnits="userSpaceOnUse" x1="402.83252" y1="424.65247" x2="349.84164" y2="431.31677">
			<stop offset="0" stop-color="#BB7776"/>
			<stop offset="1" stop-color="#DFDBDB"/>
		</linearGradient>
	</defs>
	<path fill="url(#gradient_2)" transform="scale(0.998438 0.998438)" d="M395.306 430.224C391.195 430.771 386.412 430.259 382.244 430.208C368.079 430.033 353.865 429.826 339.826 427.733L340.379 428.439L340.293 427.822L339.504 427.695L340.007 426.979C364.471 424.303 397.048 425.713 422.247 425.879C415.955 427.645 408.863 425.272 402.831 426.849C403.475 427.804 403.578 427.843 403.509 428.978C400.65 429.221 398.023 429.166 395.306 430.224Z"/>
	<path fill="#254164" transform="scale(0.998438 0.998438)" d="M816.172 335.995C825.159 338.937 835.316 342.505 843.122 347.91C850.981 352.119 860.244 356.86 865.465 364.345C864.431 364.164 863.788 363.938 862.77 364.2C862.346 364.875 861.95 365.652 861.407 366.234C858.441 362.351 853.829 358.309 849.446 356.098C843.637 353.167 838.144 353.681 832.205 355.588C831.861 354.914 831.48 354.591 830.936 354.077L828.705 354.443L827.911 353.862C828.17 351.802 837.65 352.076 839.819 350.223C839.13 348.594 837.716 348.063 836.247 347.258C830.52 344.247 823.628 342.488 817.474 340.402Q816.777 338.212 816.172 335.995Z"/>
	<path fill="#254164" transform="scale(0.998438 0.998438)" d="M751.145 340.67C772.596 337.246 794.424 331.597 816.172 335.995Q816.777 338.212 817.474 340.402C802.071 337.222 788.321 338.757 772.99 341.171C768.601 341.862 763.21 343.381 758.796 343.213C757.382 343.51 755.215 343.678 753.987 344.4L750.06 343.785C748.815 342.451 748.657 343.812 747.254 343.031L747.796 340.982L751.145 340.67Z"/>
	<path fill="#4E627A" transform="scale(0.998438 0.998438)" d="M895.134 371.787C896.36 371.519 897.207 372.353 897.985 371.971C899.261 374.551 900.477 377.197 901.845 379.728C911.783 379.552 922.018 378.895 931.914 379.889Q917.649 381.476 903.352 382.732C904.138 386.039 905.193 389.28 904.439 392.679L903.766 393.07C901.83 390.502 901.56 386.791 900.984 383.695C887.167 384.872 872.576 385.251 858.709 384.865C848.977 384.595 839.4 383.563 829.637 383.77C826.985 383.425 824.155 383.324 821.773 382.037C827.721 381.988 840.37 383.61 845.494 381.857C846.057 382.281 846.613 382.738 847.289 382.976C849.009 383.58 850.551 383.491 852.177 382.761L852.609 381.276C857.835 384.066 891.499 381.572 899.371 381.067C898.149 377.932 896.799 374.71 895.134 371.787Z"/>
	<path fill="#254164" transform="scale(0.998438 0.998438)" d="M997.073 376.872C1004.31 377.224 1020.2 378.432 1026.46 381.418L1026.84 382.641C1022.73 382.684 1018.17 380.011 1014.29 382.295C1018.1 384.004 1019.42 388.307 1020.86 391.966C1020.9 392.052 1020.92 392.14 1020.96 392.226L1022 393.026L1021.58 393.586L1016.72 393.276C1016.25 393.879 1015.89 394.341 1015.57 395.042C1012.26 394.609 999.746 383.634 995.127 381.347C992.008 379.804 988.623 379.249 985.232 378.633L985.699 377.821C989.52 377.665 993.275 377.316 997.073 376.872Z"/>
	<path fill="#FEFEFE" transform="scale(0.998438 0.998438)" d="M1003.41 381.619L1014.29 382.295C1018.1 384.004 1019.42 388.307 1020.86 391.966C1020.9 392.052 1020.92 392.14 1020.96 392.226C1016.27 391.781 1007.24 384.602 1003.41 381.619Z"/>
	<path fill="#FEFEFE" transform="scale(0.998438 0.998438)" d="M895.134 371.787C896.799 374.71 898.149 377.932 899.371 381.067C891.499 381.572 857.835 384.066 852.609 381.276Q858.435 377.099 864.054 372.649Q879.612 372.859 895.134 371.787Z"/>
	<path fill="#B41C23" transform="scale(0.998438 0.998438)" d="M486.406 398.91Q517.795 398.179 549.193 398.173C556.335 398.16 566.187 396.953 572.935 398.754C571.956 400.599 571.999 402.192 571.343 404.04C540.304 403.916 509.386 403.116 478.356 402.567C475.432 402.022 472.468 401.554 469.564 400.92L470.1 400.202C475.419 399.285 481.007 399.631 486.406 398.91Z"/>
	<path fill="#0F2B4D" transform="scale(0.998438 0.998438)" d="M1043.96 421.02C1047.88 420.079 1055.34 419.653 1059.15 420.983C1055.16 433.407 1056.19 429.548 1061.4 440.944C1063.89 441.428 1067.37 441.638 1069.1 443.598L1068.41 444.475C1065.98 445.394 1063.66 445.371 1061.11 445.419C1052.75 447.163 1042.44 446.125 1033.84 446.03C1036.36 442.399 1036.81 434.984 1038 430.596C1039.04 426.788 1040.36 423.054 1043.96 421.02Z"/>
	<path fill="#0F2B4D" transform="scale(0.998438 0.998438)" d="M1014.29 382.295C1018.17 380.011 1022.73 382.684 1026.84 382.641C1029.11 382.274 1032.02 382.525 1033.84 384.121C1033.95 384.223 1034.03 384.359 1034.13 384.478C1036.1 384.71 1038.04 384.763 1039.76 385.845C1044.93 387.754 1049.79 390.284 1055.01 392.164C1056.61 392.74 1057.73 393.571 1058.55 395.104C1062.44 396.541 1067.02 398.722 1069.94 401.709L1070.54 403.235C1069.41 404.541 1068.74 404.858 1066.94 404.951C1065.05 405.049 1062.92 404.657 1061.03 404.444C1060.86 404.472 1060.69 404.51 1060.52 404.527C1053.72 405.195 1027.83 401.042 1021.21 398.577C1019.14 397.808 1017.24 396.464 1015.57 395.042C1015.89 394.341 1016.25 393.879 1016.72 393.276L1021.58 393.586L1022 393.026L1020.96 392.226C1020.92 392.14 1020.9 392.052 1020.86 391.966C1019.42 388.307 1018.1 384.004 1014.29 382.295Z"/>
	<path fill="#FEFEFE" transform="scale(0.998438 0.998438)" d="M1047.3 399.409C1047.14 399.244 1046.39 398.46 1046.27 398.357C1045.7 397.853 1045.66 398.04 1045.19 397.348C1044.38 396.156 1044.1 394.858 1044.32 393.495C1045.58 393.424 1046.44 394.226 1047.43 394.912C1049.7 395.685 1054.27 397.258 1055.43 399.434C1052.76 399.839 1049.99 399.534 1047.3 399.409Z"/>
	<path fill="#254164" transform="scale(0.998438 0.998438)" d="M1038.42 392.823C1039.71 392.984 1040.19 393.239 1041.39 392.661C1043.69 391.557 1045.91 392.143 1048.14 393.047C1048.34 393.127 1048.54 393.213 1048.74 393.296C1048.32 394.305 1048.22 394.271 1047.43 394.912C1046.44 394.226 1045.58 393.424 1044.32 393.495C1044.1 394.858 1044.38 396.156 1045.19 397.348C1045.66 398.04 1045.7 397.853 1046.27 398.357C1046.39 398.46 1047.14 399.244 1047.3 399.409C1044.32 399.309 1041.6 398.89 1038.68 398.292L1039.64 397.103C1039.85 395.093 1039.34 394.578 1038.42 392.823Z"/>
	<path fill="#FEFEFE" transform="scale(0.998438 0.998438)" d="M1022.3 385.062L1029.21 386.359C1031.12 388.13 1035.47 388.662 1036.12 389.94L1038.16 390.465L1037.7 391.728L1038.42 392.823C1039.34 394.578 1039.85 395.093 1039.64 397.103L1038.68 398.292C1034.46 397.523 1030.12 397.132 1025.86 396.592C1026.22 393.188 1023.57 388.247 1022.3 385.062Z"/>
	<path fill="#B41C23" transform="scale(0.998438 0.998438)" d="M436.339 425.897L531.874 425.662C539.047 425.647 567.12 424.554 571.734 426.127C573.096 427.65 573.685 430.069 574.385 431.975L574.226 432.912C564.983 434.811 543.843 433.157 533.696 433.029Q497.93 432.899 462.191 431.493C453.561 431.197 444.62 431.449 436.035 430.68C430.029 428.184 423.037 430.489 417.242 429.333L416.542 428.208L416.787 427.286C421.175 427.297 431.979 428.606 435.599 426.4C435.854 426.245 436.092 426.065 436.339 425.897Z"/>
	<path fill="#B41C23" transform="scale(0.998438 0.998438)" d="M469.626 448.321C515.394 448.164 561.871 446.47 607.512 449.906L607.694 450.398C608.251 451.935 608.605 453.385 608.941 454.98C609.129 455.872 609.054 455.547 609.522 456.531C612.652 457.062 619.491 458.867 622.207 457.466C622.711 456.414 623.235 455.376 623.661 454.289L624.994 455.315C624.974 455.458 624.94 455.6 624.933 455.744C624.897 456.54 625.215 457.07 625.539 457.77L626.42 458.155L625.727 458.874C625.53 459.093 625.357 459.336 625.137 459.531C623.254 461.194 616.455 459.454 614.161 459.095C598.706 456.682 583.417 456.386 567.8 456.396C554.508 455.008 540.904 455.286 527.541 454.761C505.094 453.878 482.438 452.54 459.978 452.695C458.752 452.092 458.235 451.697 457.467 450.562L457.813 449.668C461.212 448.341 465.955 448.676 469.626 448.321Z"/>
	<path fill="#0F2B4D" transform="scale(0.998438 0.998438)" d="M747.073 379.576L746.764 378.737C750.556 376.282 763.038 377.644 767.9 377.414C771.555 381.052 776.574 383.117 780.12 386.771C775.07 387.505 769.613 387.709 764.677 388.754C760.364 388.775 752.338 390.702 748.407 389.21C746.985 388.67 746.93 387.626 746.417 386.327C743.772 385.954 740.847 386.338 738.176 386.462C743.873 403.017 757.395 417.298 770.362 428.653C785.951 430.874 801.661 431.391 817.367 432.284L874.836 435.883C883.956 436.479 896.894 435.688 905.419 438.023C876.575 440.734 840.625 437.716 811.341 436.193C799.967 435.601 783.198 436.08 772.584 432.877C762.979 429.977 748.432 415.616 742.526 407.737C739.3 403.432 736.764 398.641 734.168 393.942C727.775 394.701 719.521 393.086 713.626 395.06L715.167 396.447C715.437 400.03 716.102 404.067 715.461 407.597C713.211 406.484 709.823 395.264 707.551 392.312C707.415 392.134 707.269 391.964 707.128 391.79C715.865 392.101 724.586 392.445 733.331 392.259C733.015 390.795 732.703 389.326 732.468 387.847C732.137 385.764 732.289 384.505 733.534 382.812C735.912 381.542 739.285 382.448 741.928 382.391C744.657 382.332 745.232 381.434 747.073 379.576Z"/>
	<path fill="#0F2B4D" transform="scale(0.998438 0.998438)" d="M543.566 366.069C541.929 364.687 540.263 363.23 539.018 361.474C536.091 357.345 523.491 336.119 522.716 332.05C527.06 330.206 575.587 338.457 583.332 339.35C587.839 339.87 592.565 339.583 597.013 340.429C600.251 341.046 603.555 342.272 606.694 343.282L606.072 344.729C606.322 344.82 606.573 344.904 606.82 345.001C609.206 345.936 610.946 348.021 611.796 350.405C612.443 352.218 612.625 354.465 611.614 356.189C609.227 360.259 603.208 362.455 598.776 363.319C594.212 364.209 583.685 364.114 580.179 366.162C580.196 371.574 584.87 380.256 587.548 385.023C590.655 387.161 602.441 385.626 606.602 385.852C606.34 386.569 606.442 386.749 605.748 387.135C599.969 388.22 594.139 388.029 588.289 387.774C585.871 390.962 584.276 393.523 583.111 397.401L581.402 398.06L581.396 398.696L581.836 398.627C581.698 398.916 581.549 399.201 581.422 399.495C579.455 404.049 583.928 412.969 585.881 417.184L590.502 427.024C591.622 429.448 598.285 438.796 600.625 439.286C605.633 440.336 605.647 437.927 612.223 441.379L613.055 442.603C612.383 444.069 611.874 444.41 610.309 444.945C606.685 446.182 590.428 443.333 586.863 441.358C586.19 440.986 586.113 440.901 585.422 440.417C585.412 440.213 585.405 440.009 585.394 439.805C585.118 434.907 580.76 430.94 578.477 426.669C575.242 420.615 571.538 410.929 571.343 404.04C571.999 402.192 571.956 400.599 572.935 398.754C573.16 398.712 573.398 398.715 573.611 398.63C575.186 398 577.108 396.351 578.009 394.936C579.592 388.148 573.599 376.007 570.48 369.914L570.046 368.701C567.103 366.08 550.035 368.11 543.566 366.069Z"/>
	<path fill="#FEFEFE" transform="scale(0.998438 0.998438)" d="M574.267 345.671Q575.188 345.639 576.11 345.648C581.863 345.69 594.759 345.887 598.985 350.232L598.424 351.047C588.977 353.909 576.393 350.379 566.746 349.635C564.372 349.451 558.62 348.919 556.771 350.478C560.449 355.229 576.926 355.215 582.647 358.572C579.96 360.421 552.781 359.822 548.428 359.158C545.867 357.416 537.849 344.975 537.077 342.115C536.908 341.489 537.014 341.695 536.65 341.062C536.585 340.95 536.507 340.845 536.436 340.737L537.418 339.899L539.71 340.256C546.48 340.841 569.514 342.57 574.267 345.671Z"/>
	<path fill="#0F2B4D" transform="scale(0.998438 0.998438)" d="M810.024 486.518Q825.342 486.301 840.658 486.622C835.388 503.418 829.248 519.901 823.822 536.624C819.168 550.97 814.036 571.122 807.36 584.169C804.922 588.934 799.769 594.603 795.931 598.421C776.403 617.847 751.883 615.112 726.562 615.069C721.961 615.093 699.358 616.106 696.962 614.172L697.189 612.317C698.848 609.547 701.521 608.223 703.827 606.072C705.742 604.284 707.329 602.038 709.167 600.14C713.217 595.958 718.082 589.708 723.003 586.842C728.634 583.563 758.755 588.813 769.742 584.604C773.745 583.071 777.286 580.403 779.586 576.768C783.766 570.16 785.065 562.175 787.42 554.812L800.905 513.43C803.663 504.816 805.945 495.335 809.733 487.137L810.024 486.518Z"/>
	<path fill="#0F2B4D" transform="scale(0.998438 0.998438)" d="M989.128 489.445C991.731 490.521 1086.38 488.683 1099.62 489.474C1099.52 493.371 1094.36 499.63 1091.52 502.408C1076.42 517.139 1055.6 516.338 1036.14 516.077C1037.98 521.547 1016.63 578.56 1015.09 588.757C1015 590.174 1014.97 591.761 1014.62 593.14C1013.88 596.132 1011.81 598.929 1010.8 601.897C1009.62 605.346 1009.18 611.237 1007.39 614.142C997.874 615.324 987.988 614.633 978.407 614.419C983.832 592.712 990.934 571.603 997.41 550.215C999.006 544.945 999.893 539.472 1001.47 534.214C1003.13 528.705 1006.24 523.725 1007.72 518.111C1003.68 514.509 970.628 519.49 962.434 516.657C962.744 515.261 963.836 513.976 964.794 512.957C966.421 511.229 988.444 491.091 988.72 490.926C988.884 490.828 989.058 490.75 989.227 490.662L989.128 489.445Z"/>
	<path fill="#B41C23" transform="scale(0.998438 0.998438)" d="M505.065 487.9C516.496 487.429 620.559 486.792 623.8 488.123L623.686 489.085C622.641 489.527 621.287 489.936 620.35 490.553C609.41 497.756 599.814 507.79 589.334 515.742C577.78 515.935 565.958 516.178 554.434 515.342C551.519 522.452 549.579 529.836 547.206 537.128C543.26 549.248 538.876 561.254 534.901 573.357C533.464 577.732 532.445 582.179 530.862 586.526C528.397 592.375 525.179 610.852 521.813 614.217C518.215 617.815 496.951 616.355 490.846 616.338C496.532 598.966 501.637 581.366 507.257 563.97C512.524 547.668 518.273 531.56 523.118 515.109C514.358 515.98 486.169 516.839 478.743 514.226C477.592 513.821 477.396 513.702 476.904 512.658C479.925 511.448 501.767 491.885 504.608 488.461L505.065 487.9Z"/>
	<path fill="#7792A0" transform="scale(0.998438 0.998438)" d="M591.013 668.89C603.863 670.077 618.892 667.714 631.945 666.98L729.825 660.777Q834.698 653.594 939.737 649.507C943.468 649.674 948.366 649.309 951.84 650.63L951.779 651.166L949.554 652.098C927.492 652.536 905.601 655.486 883.683 657.788L802.917 665.714L627.948 681.582C606.696 683.498 585.376 684.907 564.153 687.111L471.219 695.855C454.543 697.482 426.996 701.447 411.352 700.458C393.197 699.311 368.733 689.057 349.064 686.063C365.556 683.549 382.826 683.873 399.481 682.769L515.096 675.097C527.196 674.252 548.189 674.508 559.205 672.206C559.415 671.997 559.616 671.778 559.835 671.579C563.511 668.248 585.475 668.63 591.013 668.89Z"/>
	<path fill="#CACFD0" transform="scale(0.998438 0.998438)" d="M559.205 672.206C559.415 671.997 559.616 671.778 559.835 671.579C563.511 668.248 585.475 668.63 591.013 668.89L592.578 669.783C589.766 672.006 564.61 672.25 559.205 672.206Z"/>
	<path fill="#7792A0" transform="scale(0.998438 0.998438)" d="M198.426 649.701C209.356 648.513 220.936 649.361 231.944 649.445Q260.29 649.652 288.635 649.441L479.832 646.746L663.236 643.15Q700.668 641.881 738.118 641.33C750.077 641.158 762.383 640.431 774.298 641.319L777.619 642.346C776.722 642.86 775.784 643.32 775 643.998C768.706 646.807 658.371 650.813 642.067 651.702L370.213 667.157L318.31 670.064C308.997 670.57 299.286 671.637 289.979 671.161C280.08 670.655 270.126 666.623 260.564 664.191C239.893 658.935 219.32 653.961 198.426 649.701Z"/>
	<path fill="#B41C23" transform="scale(0.998438 0.998438)" d="M383.481 487.309L384.681 487.268C385.614 488.282 385.38 489.119 385.118 490.412C384.121 495.338 381.645 500.325 380.089 505.129C375.637 518.872 371.43 532.807 367.33 546.664C365.038 554.409 361.941 562.801 361.041 570.817Q360.914 571.881 360.901 572.952Q360.889 574.024 360.992 575.09Q361.095 576.157 361.312 577.206Q361.529 578.255 361.857 579.275C363.073 582.937 365.554 585.853 369.022 587.565C378.089 592.041 392.509 590.229 401.787 587.241C407.739 585.325 414.371 581.978 418.461 577.11C421.633 573.334 424.115 568.626 426.043 564.107C429.211 556.682 431.233 548.683 433.749 541.011C437.45 529.725 441.543 518.379 444.82 506.975C446.517 501.069 447.498 493.803 450.23 488.379C455.971 485.53 474.738 487.144 481.677 487.595C475.593 501.649 472.394 517.305 467.09 531.769C463.58 536.824 462.729 546.605 460.938 552.592Q457.951 562.569 454.117 572.253C445.814 592.868 432.688 604.029 412.562 612.573L412.815 612.617C399.404 619.374 365.637 619.108 351.253 614.621C343.592 612.231 336.646 607.423 332.984 600.134C329.319 592.841 328.161 584.159 328.852 576.093C329.947 563.32 335.599 550.548 339.254 538.331C344.298 521.472 348.565 504.307 354.028 487.572C363.765 487.018 373.715 487.41 383.481 487.309Z"/>
	<path fill="#0F2B4D" transform="scale(0.998438 0.998438)" d="M882.924 491.226C886.993 490.612 891.02 490.288 895.134 490.185C915.652 489.671 936.214 490.262 956.744 489.844C960.015 489.778 976.14 488.584 978.151 489.3C978.581 489.453 978.913 489.801 979.294 490.052L978.065 490.543C977.844 491.135 977.854 491.429 977.336 491.81C970.451 496.873 960.351 512.68 954.468 515.594C950.605 517.507 944.278 516.807 940.033 516.761C926.331 516.612 897.313 514.593 885.105 518.498C881.425 519.675 876.296 523.224 874.228 526.458C871.755 528.92 869.984 531.249 869.436 534.793L869.9 536.033L870.038 535.588L870.732 535.312L870.994 536.296C888.192 537.19 905.734 536.913 922.961 536.873C930.46 536.856 938.655 536.196 946.085 537.024C944.656 538.638 943.372 540.292 942.12 542.047L942.196 542.736C935.403 547.088 929.837 555.625 923.79 561.138C923.034 561.828 922.278 562.578 921.246 562.798C914.293 564.281 905.978 563.357 898.847 563.341C885.525 563.312 872.143 563.531 858.836 562.945C857.482 567.625 855.538 573.003 855.588 577.919C855.615 580.606 856.574 582.302 858.598 584.073C859.697 585.035 860.843 585.63 862.286 585.861C871.387 587.317 881.806 586.382 891.075 586.353C907.498 586.302 923.962 586.498 940.375 585.986C936.228 592.687 924.441 609.339 918.738 614.358C907.537 615.009 896.123 614.64 884.898 614.671C875.05 614.698 864.527 615.404 854.776 614.043C849.803 613.348 839.086 610.577 835.411 607.307C834.301 606.319 834.169 605.011 833.329 603.872C832.528 602.788 831.219 601.985 830.319 600.936C826.946 597.007 825.571 592.355 825.149 587.295C824.211 576.057 828.3 568.19 831.828 557.914C833.945 551.749 835.368 545.361 837.507 539.193C841.167 528.637 847.793 517.335 855.021 508.881C861.565 501.229 872.333 492.015 882.924 491.226Z"/>
	<path fill="#B41C23" transform="scale(0.998438 0.998438)" d="M287.391 487.3C305.255 487.268 323.206 487.807 341.05 486.99L317.794 565.426C312.96 582.287 308.612 599.328 302.996 615.955C293.049 616.929 282.664 616.363 272.666 616.231C274.697 603.59 280.443 592.29 282.999 579.804L243.506 580.19L223.063 580.143C220.862 587.785 218.476 595.332 216.195 602.939C215.273 606.017 214.641 609.421 213.369 612.366C212.686 613.947 211.593 615.442 209.909 616.036C206.557 617.219 184.872 616.389 182.016 615.055C181.992 614.883 181.949 614.714 181.944 614.541C181.938 614.359 200.566 552.708 202.149 548.174C204.297 542.022 206.915 535.883 209.965 530.124C213.709 523.055 219.21 517.457 224.745 511.768C242.561 493.457 262.551 487.642 287.391 487.3Z"/>
	<path fill="#FEFEFE" transform="scale(0.998438 0.998438)" d="M302.459 513.602L302.749 514.827L302.012 515.022L301.798 515.479L302.849 515.816C300.22 517.474 291.937 548.689 290.561 553.433C271.478 553.332 252.376 553.726 233.289 553.725L232.571 552.942C233.038 546.457 242.051 532.664 246.593 527.913C262.342 511.441 281.609 513.988 302.459 513.602Z"/>
	<path fill="#B41C23" transform="scale(0.998438 0.998438)" d="M720.048 567.508C719.701 568.596 719.324 569.648 718.796 570.663C716.698 574.697 713.328 578.667 710.504 582.231C697.98 598.034 684.318 607.865 664.911 613.562C645.201 619.348 616.681 620.278 598.424 610.244C589.505 605.342 582.539 598.23 579.797 588.24C574.625 569.394 580.102 548.07 589.786 531.615C601.21 512.202 623.358 495.774 645.266 490.167C663.594 485.476 692.822 484.269 709.224 494.236C717.718 499.397 722.913 507.308 725.316 516.881C730.006 524.33 727.986 541.116 726.1 549.502C724.678 555.823 721.88 561.407 720.048 567.508Z"/>
	<path fill="#FEFEFE" transform="scale(0.998438 0.998438)" d="M655.562 517.871C664.99 517.751 679.876 515.885 687.869 521.563C692.486 524.843 695.031 530.094 695.878 535.578C697.834 548.247 692.425 560.931 684.918 570.88C676.741 581.718 665.747 586.274 652.688 588.207C640.964 588.71 626.574 589.907 616.735 582.181C612.885 579.158 611.053 574.527 610.633 569.763C609.462 556.473 615.194 542.15 623.753 532.167C632.219 522.292 642.909 518.921 655.562 517.871Z"/>
	<path fill="#0F2B4D" transform="scale(0.998438 0.998438)" d="M585.141 380.992C601.942 366.531 630.145 360.908 651.096 354.513C659.605 351.917 667.903 348.711 676.423 346.143C688.667 342.454 700.929 339.669 713.307 336.555C749.066 327.558 785.124 319.084 822.319 321.869C830.289 322.466 838.392 322.977 846.241 324.516C851.104 325.469 855.735 327.191 860.458 328.662C878.575 334.303 894.687 341.411 911.506 350.195C916.133 352.612 927.319 360.51 931.516 361.393C937.777 362.711 954.512 359.929 961.858 359.547C984.207 358.384 1008.4 361.181 1029.91 367.424C1032.35 368.132 1038.8 369.528 1040.39 371.275C1052.84 371.27 1088.06 390.896 1097 399.567C1099.01 401.523 1099.26 403.232 1099.25 405.974C1099.19 414.069 1096.14 423.315 1093.92 431.091L1093.87 430.854L1093.93 432.635L1095.12 433.026L1094.39 434.894C1096.82 438.497 1100.12 442.62 1100.46 447.099L1099.97 447.959C1089.81 449.092 1082.23 448.38 1073.28 454.156C1070.61 455.88 1066.97 459.078 1064.04 460.099L999.995 460.164C1002.25 452.473 1005.5 445.209 1006.99 437.281C1007.6 430.103 1007.93 418.734 1003.61 412.555L1003.19 412.648C1002.59 415.955 1003.02 419.254 1002.91 422.595C1002.58 432.233 999.485 440.936 993.326 448.258L992.94 448.71L993.23 450.154C983.036 458.673 975.141 464.487 961.198 463.205C948.612 462.048 940.447 454.755 932.852 445.307C931.273 443.343 931.588 441.298 930.466 439.115C927.161 432.69 930.093 420.755 927.658 416.155C923.625 424.646 922.965 440.875 926.242 449.964C927.531 453.539 928.778 457.261 930.159 460.787C882.837 460.588 835.104 460.615 787.856 458.155C778.376 458.215 768.979 458.091 759.532 457.251C742.024 455.556 723.962 457.311 706.551 455.069C706.601 446.076 706.651 437.074 705.433 428.148C703.869 435.211 703.064 442.954 700.274 449.689C692.281 455.059 692.645 459.925 680.654 464.444C670.915 468.115 659.782 468.044 650.262 463.685C636.375 457.326 632.975 448.387 628.003 435.341L627.341 435.603C624.958 440.441 622.91 448.904 623.661 454.289C623.235 455.376 622.711 456.414 622.207 457.466C619.491 458.867 612.652 457.062 609.522 456.531C609.054 455.547 609.129 455.872 608.941 454.98C608.605 453.385 608.251 451.935 607.694 450.398L607.512 449.906C609.772 450.212 611.971 450.425 614.251 450.482C614.78 449.535 614.766 448.865 614.775 447.794C613.977 447.109 613.414 446.58 612.889 445.663C614.004 445.232 615.272 445.031 615.957 444.025C617.513 441.741 618.211 437.744 619.043 435.087C622.774 423.174 626.287 410.225 634.996 400.876C643.142 392.131 653.281 387.704 665.169 387.44C677.924 387.157 689.551 389.877 698.915 399.045C707.996 407.934 712.203 419.14 715.178 431.16C715.806 433.693 716.765 435.458 716.778 438.135C717.359 440.264 717.969 445.201 719.266 446.649C734.239 447.528 749.247 447.414 764.241 448.284C769.261 448.575 774.792 448.482 779.702 449.46Q850.295 451.606 920.918 451.115C920.581 442.889 918.601 434.746 918.801 426.472C918.881 423.176 919.742 420.067 920.485 416.879C922.632 407.659 924.74 402.284 931.642 395.658C931.613 395.293 931.587 394.927 931.552 394.562L931.467 393.723C936.894 390.183 942.216 386.592 948.433 384.591C960.387 380.742 973.307 380.473 984.585 386.485C997.474 393.356 1006.26 406.574 1010.54 420.234C1015.66 427.351 1011.54 440.904 1012.83 449.233C1012.95 449.985 1013.24 451.575 1013.95 451.938C1016.25 453.114 1061.62 453.216 1064.73 452.23C1067.45 451.366 1070.24 447.723 1072.84 446.254C1077.21 443.786 1084.34 442.957 1089.26 441.317C1089.03 440.495 1088.62 439.802 1088.01 439.197C1084.33 435.529 1071.69 436.871 1066.54 436.839C1067.5 435.277 1067.45 433.612 1067.69 431.853C1068.87 423.178 1074.55 410.315 1082.24 405.432C1084.34 404.099 1086.9 404.053 1088.92 402.543C1088.81 402.364 1088.73 402.172 1088.6 402.006C1083.21 394.767 1038.98 377.368 1028.74 375.732C1024.28 373.529 1018.8 373.221 1013.96 372.146C994.125 367.738 975.107 365.845 954.698 367.149C944.47 367.803 934.287 369.351 924.065 370.159C915.481 370.837 906.436 370.233 897.985 371.971C897.207 372.353 896.36 371.519 895.134 371.787Q879.612 372.859 864.054 372.649Q858.435 377.099 852.609 381.276L852.177 382.761C850.551 383.491 849.009 383.58 847.289 382.976C846.613 382.738 846.057 382.281 845.494 381.857C841.919 379.111 838.655 375.725 835.338 372.662Q797.297 370.738 759.354 367.399C747.713 366.408 735.671 366.383 724.226 363.906C718.288 362.621 710.926 359.937 706.074 356.272C704.503 355.086 703.892 354.061 703.571 352.187L705.182 350.592C712.369 351.209 737.722 342.689 747.796 340.982L747.254 343.031C748.657 343.812 748.815 342.451 750.06 343.785L753.987 344.4C755.215 343.678 757.382 343.51 758.796 343.213C763.21 343.381 768.601 341.862 772.99 341.171C788.321 338.757 802.071 337.222 817.474 340.402C823.628 342.488 830.52 344.247 836.247 347.258C837.716 348.063 839.13 348.594 839.819 350.223C837.65 352.076 828.17 351.802 827.911 353.862L828.705 354.443L830.936 354.077C831.48 354.591 831.861 354.914 832.205 355.588C838.144 353.681 843.637 353.167 849.446 356.098C853.829 358.309 858.441 362.351 861.407 366.234C861.95 365.652 862.346 364.875 862.77 364.2C863.788 363.938 864.431 364.164 865.465 364.345C865.706 364.586 865.941 364.833 866.187 365.069C869.909 368.652 879.261 367.025 884.109 366.778C878.562 362.386 872.12 358.834 866.066 355.193C855.477 348.825 845.02 342.58 833.781 337.415C828.505 334.99 823.072 332.949 817.335 331.948C792.226 327.564 757.715 334.826 733.014 340.588C725.522 342.335 716.923 343.449 709.778 346.14C707.83 346.873 705.903 347.312 703.875 347.75C697.167 349.364 660.92 358.707 657.612 360.979L657.756 361.498C657.907 361.482 658.058 361.464 658.209 361.45C660.748 361.215 663.257 361.953 665.802 362.178C681.916 363.599 705.274 367.982 718.654 377.553L718.716 378.041L718.223 377.883L717.8 378.326L717.347 377.672C692.208 369.901 664.597 365.08 638.183 368.189C623.702 369.894 599.599 376.683 585.141 380.992Z"/>
	<path fill="#254164" transform="scale(0.998438 0.998438)" d="M759.532 457.251C769.508 453.061 777.897 456.682 787.856 458.155C778.376 458.215 768.979 458.091 759.532 457.251Z"/>
	<path fill="#CACFD0" transform="scale(0.998438 0.998438)" d="M750.06 343.785L753.987 344.4C752.22 345.15 750.13 345.55 749.303 347.425C748.061 350.24 751.026 356.4 751.978 359.107C760.947 359.769 770.92 360.398 779.483 363.228C769.937 363.336 760.235 362.29 750.705 361.67C749.578 357.507 747.378 352.19 747.605 347.877C747.707 345.946 748.69 345.027 750.06 343.785Z"/>
	<path fill="#7792A0" transform="scale(0.998438 0.998438)" d="M716.778 438.135C717.359 440.264 717.969 445.201 719.266 446.649C734.239 447.528 749.247 447.414 764.241 448.284C769.261 448.575 774.792 448.482 779.702 449.46C772.497 450.636 724.147 450.873 718.261 448.891C716.499 445.527 716.668 441.822 716.778 438.135Z"/>
	<path fill="#FEFEFE" transform="scale(0.998438 0.998438)" d="M739.663 347.652C740.164 347.786 740.707 348.325 741.124 348.64C742.341 351.815 743.94 356.042 743.754 359.45C740.541 360.815 730.235 358.076 726.368 357.512C724.246 357.199 722.461 356.901 720.503 356.001L720.312 354.981C724.256 350.992 734.292 349.608 739.663 347.652Z"/>
	<path fill="#FEFEFE" transform="scale(0.998438 0.998438)" d="M832.205 355.588C838.144 353.681 843.637 353.167 849.446 356.098C853.829 358.309 858.441 362.351 861.407 366.234C853.655 366.507 841.094 366.11 833.767 364.014C832.775 363.73 832.1 363.424 831.632 362.471C830.623 360.415 831.452 357.602 832.205 355.588Z"/>
	<path fill="#FEFEFE" transform="scale(0.998438 0.998438)" d="M830.095 330.237L830.532 330.23C842.223 330.162 852.991 334.217 864.039 337.641C872.864 339.603 911.006 354.772 915.191 361.268L915.218 362.214L916.183 363.015C914.205 364.225 893.609 365.479 889.698 365.516C881.462 358.014 871.228 352.855 861.896 346.872C859.535 345.358 856.198 343.732 854.256 341.787C846.067 338.317 838.449 333.622 830.095 330.237Z"/>
	<path fill="#FEFEFE" transform="scale(0.998438 0.998438)" d="M758.796 343.213C763.21 343.381 768.601 341.862 772.99 341.171C788.321 338.757 802.071 337.222 817.474 340.402C823.628 342.488 830.52 344.247 836.247 347.258C837.716 348.063 839.13 348.594 839.819 350.223C837.65 352.076 828.17 351.802 827.911 353.862L828.705 354.443C825.728 357.923 827.88 365.19 823.393 365.521C811.317 366.412 792.505 363.79 779.483 363.228C770.92 360.398 760.947 359.769 751.978 359.107C751.026 356.4 748.061 350.24 749.303 347.425C750.13 345.55 752.22 345.15 753.987 344.4C755.215 343.678 757.382 343.51 758.796 343.213Z"/>
	<path fill="#FEFEFE" transform="scale(0.998438 0.998438)" d="M949.423 397.992C958.139 394.885 967.565 393.449 976.198 397.595C980.252 399.543 986.348 404.477 987.876 408.844C991.805 414.484 992.911 421.661 991.753 428.375Q991.624 429.097 991.46 429.812Q991.295 430.528 991.096 431.234Q990.897 431.94 990.663 432.635Q990.429 433.331 990.162 434.014Q989.894 434.697 989.593 435.366Q989.292 436.036 988.959 436.689Q988.625 437.343 988.26 437.979Q987.895 438.615 987.499 439.233Q987.103 439.851 986.677 440.448Q986.251 441.046 985.797 441.621Q985.342 442.197 984.859 442.75Q984.377 443.303 983.868 443.831Q983.359 444.359 982.824 444.862Q982.29 445.365 981.731 445.84Q981.173 446.316 980.592 446.764Q980.01 447.211 979.408 447.63C973.23 451.929 965.817 453.259 958.453 451.859C954.596 451.126 950.672 449.542 947.458 447.285C946.31 447.05 945.78 446.753 944.971 445.903C944.817 445.741 944.668 445.574 944.513 445.412C941.581 442.349 939.637 439.415 938.153 435.416C935.109 427.215 934.632 417.369 938.41 409.316C940.54 404.778 944.605 399.774 949.423 397.992Z"/>
	<path fill="#0F2B4D" transform="scale(0.998438 0.998438)" d="M961.213 417.773C959.896 418.992 958.679 420.068 957.138 420.994Q956.096 420.703 955.059 420.394C951.138 419.221 943.17 417.071 941.307 413.121C940.891 412.237 940.8 411.475 941.226 410.573C941.998 408.937 944.161 405.951 945.833 405.268C949.889 407.62 951.243 413.345 955.116 415.969C956.122 416.65 956.069 416.423 957.158 416.216C958.109 414.788 958.485 413.724 958.839 412.042L958.951 411.486L960.826 409.543L962.018 409.604C963.178 411.719 962.465 414.794 961.91 417.051L961.213 417.773Z"/>
	<path fill="#0F2B4D" transform="scale(0.998438 0.998438)" d="M969.973 424.595C970.453 425.465 971.054 426.362 971.377 427.299C971.471 427.441 971.562 427.585 971.657 427.725C973.205 430.011 975.099 431.921 977.914 432.377C980.258 432.757 983.28 432.451 985.138 434.049C985.153 437.336 982.562 439.769 980.492 442.111L978.568 441.681L978.187 442.325C977.232 443.91 976.621 445.031 974.993 445.952C973.47 445.327 973.172 444.656 972.581 443.124C971.533 440.405 971.11 437.499 969.828 434.86C969.574 433.974 969.337 433.082 969.077 432.198C968.851 431.432 968.594 430.676 968.422 429.895C967.955 427.771 968.872 426.338 969.973 424.595Z"/>
	<path fill="#0F2B4D" transform="scale(0.998438 0.998438)" d="M939.709 418.32C944.695 419.423 953.756 420.405 956.682 424.778L956.879 428.32C957.835 429.483 958.983 430.299 958.872 431.9C958.568 436.268 955.652 439.846 955.398 444.492C955.383 444.757 955.359 445.021 955.342 445.286C955.333 445.444 955.327 445.604 955.319 445.763C952.176 446.457 952.767 443.373 950.459 442.203L949.619 443.484C949.338 443.313 948.875 443.027 948.614 442.9C947.662 442.435 946.629 442.166 945.793 441.47C943.695 439.721 941.685 436.235 941.658 433.547C941.823 433.671 942.679 434.323 942.843 434.405C943.828 434.896 950.354 432.852 951.76 432.51C952.954 430.831 954.293 429.446 955.766 428.009C952.595 428.676 949.248 428.725 946.013 428.681C943.239 428.644 941.939 428.176 939.986 426.227C938.722 423.848 939.444 420.915 939.709 418.32Z"/>
	<path fill="#CACFD0" transform="scale(0.998438 0.998438)" d="M949.423 397.992C958.139 394.885 967.565 393.449 976.198 397.595C980.252 399.543 986.348 404.477 987.876 408.844C987.104 410.511 986.86 411.792 986.786 413.624C987.151 414.733 987.515 415.801 987.986 416.872C987.405 417.783 986.776 418.616 986.106 419.462L985.922 420.696C986.941 421.154 988.279 420.19 988.478 420.859C989.236 423.408 988.298 427.323 987.654 429.854C984.532 429.176 981.254 428.75 978.334 427.465C977.399 427.054 976.328 426.961 975.322 426.828L971.377 427.299C971.054 426.362 970.453 425.465 969.973 424.595C968.872 426.338 967.955 427.771 968.422 429.895C968.594 430.676 968.851 431.432 969.077 432.198C969.337 433.082 969.574 433.974 969.828 434.86L968.47 436.154C968.51 437.527 968.709 438.476 969.125 439.79C969.597 441.283 969.625 441.9 969.173 443.38C970.026 444.81 970.379 445.867 970.656 447.504C970.008 448.454 969.924 448.664 968.718 448.887C965.738 449.439 962.502 448.497 959.53 449.079C958.136 448.858 957.263 448.713 956.039 447.95L955.942 446.312L955.319 445.763C955.327 445.604 955.333 445.444 955.342 445.286C955.359 445.021 955.383 444.757 955.398 444.492C955.652 439.846 958.568 436.268 958.872 431.9C958.983 430.299 957.835 429.483 956.879 428.32L956.682 424.778L958.904 424.836L961.473 426.133C963.38 425.976 963.392 425.62 964.668 424.287C964.059 423.737 963.704 423.462 963.351 422.707L963.96 421.448C964.689 421.52 965.41 421.573 966.143 421.599L966.032 420.467C964.727 418.699 963.973 417.862 961.91 417.051C962.465 414.794 963.178 411.719 962.018 409.604L960.826 409.543L958.951 411.486C958.542 410.957 958.148 410.534 957.604 410.141C954.987 408.248 952.125 406.06 950.61 403.147C950.789 402.744 951.129 402.02 951.222 401.609C951.594 399.969 950.382 399.161 949.423 397.992Z"/>
	<path fill="#0F2B4D" transform="scale(0.998438 0.998438)" d="M962.853 404.553C960.67 402.147 958.914 401.683 956.147 400.283L956.883 399.54C960.379 398.445 963.592 397.525 967.301 398.199C968.088 398.342 967.708 398.192 968.327 399.11L967.867 400.539C966.507 401.905 964.784 404.186 962.853 404.553Z"/>
	<path fill="#0F2B4D" transform="scale(0.998438 0.998438)" d="M972.99 399.279C973.104 399.32 973.213 399.383 973.332 399.403C973.972 399.512 974.601 399.455 975.216 399.71C976.727 400.336 977.385 401.065 978.12 402.455C977.098 404.761 976.139 405.049 973.995 406.149C973.11 407.479 972.432 408.56 971.059 409.452L970.287 408.637C970.128 405.07 970.698 402.078 972.99 399.279Z"/>
	<path fill="#254164" transform="scale(0.998438 0.998438)" d="M962.853 404.553C964.784 404.186 966.507 401.905 967.867 400.539C967.27 404.557 965.511 411.376 967.865 414.918C968.311 415.588 968.879 416.179 969.441 416.75L969.333 419.796C967.941 418.162 966.54 417.572 964.594 416.726C964.127 413.607 962.814 409.377 963.127 406.325C963.204 405.571 963.115 405.259 962.853 404.553Z"/>
	<path fill="#254164" transform="scale(0.998438 0.998438)" d="M969.441 416.75C971.39 414.58 974.463 409.445 976.899 408.37L977.484 408.807C977.531 411.684 974.181 417.036 974.761 418.747C976.707 419.094 977.872 418.135 979.664 417.679C980.461 419.221 981.337 420.031 980.849 421.741C978.71 422.231 977.005 421.956 975.154 423.228C974.779 424.709 974.99 425.022 975.316 426.424C975.347 426.555 975.32 426.693 975.322 426.828L971.377 427.299C971.054 426.362 970.453 425.465 969.973 424.595C970.109 422.973 969.656 421.377 969.333 419.796L969.441 416.75Z"/>
	<path fill="#0F2B4D" transform="scale(0.998438 0.998438)" d="M959.53 449.079C959.509 448.825 959.541 448.56 959.469 448.315C959.342 447.884 958.977 447.55 958.848 447.12C958.095 444.615 959.015 440.665 960.533 438.596C961.539 437.227 962.263 437.062 963.874 436.942C966.615 438.183 967.938 440.782 969.173 443.38C970.026 444.81 970.379 445.867 970.656 447.504C970.008 448.454 969.924 448.664 968.718 448.887C965.738 449.439 962.502 448.497 959.53 449.079Z"/>
	<path fill="#0F2B4D" transform="scale(0.998438 0.998438)" d="M979.664 417.679C979.416 416.425 979.02 415.931 978.274 414.913L977.835 414.324C977.802 411.363 980.586 408.237 982.447 406.106C982.426 406.906 982.499 407.6 982.637 408.388C986.193 409.822 984.535 411.663 986.786 413.624C987.151 414.733 987.515 415.801 987.986 416.872C987.405 417.783 986.776 418.616 986.106 419.462L985.922 420.696C986.941 421.154 988.279 420.19 988.478 420.859C989.236 423.408 988.298 427.323 987.654 429.854C984.532 429.176 981.254 428.75 978.334 427.465C977.399 427.054 976.328 426.961 975.322 426.828C975.32 426.693 975.347 426.555 975.316 426.424C974.99 425.022 974.779 424.709 975.154 423.228C977.005 421.956 978.71 422.231 980.849 421.741C981.337 420.031 980.461 419.221 979.664 417.679Z"/>
	<path fill="#FEFEFE" transform="scale(0.998438 0.998438)" d="M640.523 440.922C640.47 440.654 640.423 440.385 640.365 440.118C639.897 437.935 638.634 435.933 637.97 433.788C635.609 426.15 636.271 418.575 640.43 411.687C644.268 405.332 650.773 400.951 657.936 399.214C665.944 397.272 674.094 398.076 681.152 402.462C687.689 406.523 692.617 412.939 694.277 420.503C696.097 428.788 694.165 438.246 689.498 445.303C685.506 451.34 679.082 455.075 672.062 456.406Q670.857 456.633 669.647 456.831C663.97 457.807 658.854 456.249 653.448 454.676C653.202 454.386 652.974 454.095 652.67 453.857C648.612 450.684 644.938 447.967 642.203 443.44C641.675 442.566 641.113 441.754 640.523 440.922Z"/>
	<path fill="#0F2B4D" transform="scale(0.998438 0.998438)" d="M641.404 433.748C647.578 432.461 654.094 432.093 660.349 431.031C656.769 434.6 651.193 442.467 646.496 443.754C644.815 443.113 644.528 442.379 643.474 440.956L641.404 433.748Z"/>
	<path fill="#254164" transform="scale(0.998438 0.998438)" d="M672.737 431.767C677.089 431.838 681.174 433.709 685.456 433.715C687.017 434.025 689.497 434.158 690.576 435.394C690.262 437.776 689.375 440.419 688.121 442.489C687.257 443.915 686.191 444.281 684.659 444.665C680.143 443.595 675.695 435.505 672.737 431.767Z"/>
	<path fill="#0F2B4D" transform="scale(0.998438 0.998438)" d="M659.744 401.628C662.475 401.42 665.436 401.009 668.169 401.112C669.937 401.18 670.647 401.545 671.812 402.813C672.045 406.409 670.038 410.764 669.028 414.235C668.152 415.663 668.011 416.087 666.477 416.871L665.07 416.18C662.478 412.179 660.729 406.297 659.744 401.628Z"/>
	<path fill="#0F2B4D" transform="scale(0.998438 0.998438)" d="M642.387 417.091C644.236 417.745 644.006 417.854 645.372 419.127C646.821 420.478 651.635 421.759 653.677 422.753C655.585 423.683 657.938 424.7 658.663 426.836C657.39 428.013 656.203 427.78 654.507 427.936C652.211 429.003 646.811 429.528 644.271 429.471C642.546 429.432 641.898 428.997 640.714 427.82C639.999 424.674 641.634 420.249 642.387 417.091Z"/>
	<path fill="#0F2B4D" transform="scale(0.998438 0.998438)" d="M668.749 432.875C669.254 433.06 669.617 433.151 670.057 433.471C673.402 435.9 678.114 444.583 678.887 448.589C678.266 450.655 676.925 450.914 675.317 452.245L674.578 452.863Q671.347 453.45 668.093 453.89L667.599 453.35C670.768 448.482 667.231 438.773 668.749 432.875Z"/>
	<path fill="#0F2B4D" transform="scale(0.998438 0.998438)" d="M663.49 433.072C665.762 438.258 663.672 444.565 664.247 449.986C663.757 451.904 663.932 452.315 662.241 453.467C659.968 453.496 657.928 452.851 655.755 452.263C654.702 450.481 652.705 449.604 650.971 448.571C651.5 444.366 660.394 436.132 663.49 433.072Z"/>
	<path fill="#0F2B4D" transform="scale(0.998438 0.998438)" d="M677.086 402.988C680.593 405.426 683.724 407.998 686.834 410.925C683.231 414.888 678.491 419.886 673.174 421.307C673.089 421.671 673.038 422 672.822 422.329C671.947 423.662 671.548 423.73 670.092 423.947L669.191 423.111C669.021 417.184 674.724 408.581 677.086 402.988Z"/>
	<path fill="#0F2B4D" transform="scale(0.998438 0.998438)" d="M654.446 404.057L655.253 404.195C657.773 408.893 663.521 417.771 662.437 423.084L661.318 423.486C659.62 422.786 658.117 422.016 656.569 421.027C652.887 417.891 648.021 415.204 644.006 412.395C644.425 411.802 644.859 411.236 645.291 410.654C647.582 407.563 651.541 406.529 654.446 404.057Z"/>
	<path fill="#0F2B4D" transform="scale(0.998438 0.998438)" d="M673.648 428.46C672.761 427.659 672.94 427.822 672.745 426.772C677.815 424.93 682.226 418.517 686.969 417.58C688.309 417.316 688.609 417.616 689.7 418.285C691.095 420.485 691.253 423.037 691.636 425.567C692.031 427.306 692.129 428.44 691.804 430.2C690.263 432.017 688.706 432.098 686.472 432.345L685.456 433.715C681.174 433.709 677.089 431.838 672.737 431.767C673.819 430.989 674.471 430.877 674.774 429.518L673.648 428.46Z"/>
	<path fill="#CACFD0" transform="scale(0.998438 0.998438)" d="M691.636 425.567C692.031 427.306 692.129 428.44 691.804 430.2C690.263 432.017 688.706 432.098 686.472 432.345L685.456 433.715C681.174 433.709 677.089 431.838 672.737 431.767C673.819 430.989 674.471 430.877 674.774 429.518L673.648 428.46C677.977 428.931 686.986 430.943 690.614 428.845C691.481 428.344 691.466 426.522 691.636 425.567Z"/>
</svg>
